<?xml version="1.0" standalone="no"?>
<!DOCTYPE svg PUBLIC "-//W3C//DTD SVG 20010904//EN"
 "http://www.w3.org/TR/2001/REC-SVG-20010904/DTD/svg10.dtd">
<svg version="1.0" xmlns="http://www.w3.org/2000/svg"
 width="460.000000pt" height="460.000000pt" viewBox="0 0 460.000000 460.000000"
 preserveAspectRatio="xMidYMid meet">
<metadata>
Created by potrace 1.11, written by Peter Selinger 2001-2013
</metadata>
<g transform="translate(0.000000,460.000000) scale(0.100000,-0.100000)"
fill="#000000" stroke="none">
<path d="M4043 4589 c9 -5 17 -16 17 -24 0 -8 6 -18 14 -22 8 -4 39 -46 70
-93 31 -46 56 -80 56 -76 0 25 -146 226 -164 226 -6 0 -3 -5 7 -11z"/>
<path d="M399 4523 c-13 -16 -12 -17 4 -4 9 7 17 15 17 17 0 8 -8 3 -21 -13z"/>
<path d="M1471 4484 c-11 -14 -23 -41 -27 -60 -6 -33 -24 -48 -24 -20 0 15
-34 54 -70 79 -31 22 -73 22 -91 0 -13 -15 -12 -15 7 -3 13 8 32 10 49 6 32
-8 95 -67 95 -87 -1 -8 -10 -3 -23 12 -45 54 -91 44 -124 -26 -7 -16 -17 -37
-22 -45 -13 -22 -42 -115 -57 -179 -7 -31 -23 -90 -35 -131 -12 -41 -34 -122
-49 -179 -22 -85 -28 -100 -34 -80 -7 22 -9 22 -13 4 -3 -11 -10 -24 -15 -30
-7 -7 -9 19 -5 80 l5 90 -14 -80 c-12 -66 -13 -111 -4 -260 10 -165 33 -398
47 -485 5 -31 4 -33 -9 -17 -13 17 -14 16 -16 -7 -1 -18 3 -26 15 -26 9 0 14
-3 10 -6 -3 -3 0 -25 8 -49 7 -24 11 -46 8 -49 -3 -2 -2 -24 2 -48 6 -33 9
-39 15 -23 5 16 8 12 14 -20 4 -22 14 -52 22 -67 8 -15 14 -38 14 -51 0 -12 4
-27 9 -33 5 -5 14 -27 21 -49 7 -22 32 -83 57 -135 25 -52 50 -106 56 -120 19
-43 90 -163 117 -200 15 -19 50 -77 79 -127 29 -51 56 -93 60 -93 3 0 15 -15
25 -32 12 -22 -10 -4 -66 52 -84 87 -154 172 -218 264 -19 28 -38 53 -42 54
-17 8 -101 136 -144 219 -25 48 -48 90 -52 93 -4 3 -31 54 -60 114 -29 59 -55
106 -58 104 -4 -4 4 -25 46 -123 17 -41 30 -88 25 -95 -3 -5 -2 -10 3 -12 4
-1 18 -30 31 -63 46 -121 50 -130 51 -112 0 10 -7 34 -15 54 -8 19 -15 38 -15
42 1 13 30 -46 46 -93 9 -27 36 -89 60 -138 24 -48 44 -92 44 -96 0 -4 30 -66
66 -137 63 -121 65 -128 38 -111 -25 16 -57 47 -103 102 -5 6 -16 24 -25 40
-9 16 -28 47 -41 69 -14 22 -34 60 -46 85 -11 25 -45 95 -74 155 -29 61 -56
121 -60 135 -4 14 -13 39 -21 57 -8 17 -18 53 -23 80 -6 26 -14 59 -20 73 -20
52 -11 -14 15 -100 14 -47 27 -92 29 -100 2 -8 13 -39 24 -68 12 -30 18 -58
15 -64 -4 -6 -3 -13 2 -17 13 -9 46 -110 39 -121 -7 -11 13 -94 31 -128 12
-23 12 -23 19 -3 3 11 -1 41 -10 67 -9 26 -13 54 -9 63 4 11 11 2 20 -29 21
-74 45 -143 60 -178 8 -18 14 -43 14 -55 0 -13 4 -27 9 -33 9 -9 36 -81 67
-176 8 -26 19 -50 24 -53 6 -3 10 -13 10 -22 0 -20 126 -279 140 -288 5 -3 10
-16 10 -29 0 -12 11 -33 25 -46 23 -21 37 -17 16 6 -15 15 -141 270 -141 285
0 8 -7 28 -16 44 -15 27 -22 55 -54 205 -6 25 -15 55 -22 67 -14 28 -4 41 20
27 9 -6 58 -56 107 -111 50 -56 92 -99 94 -97 2 2 -3 12 -12 22 -10 10 -17 22
-17 27 0 5 -6 16 -14 24 -21 23 -163 311 -171 346 -4 17 -14 41 -22 53 -15 24
-14 24 18 17 37 -8 36 -7 115 -118 53 -75 322 -353 331 -343 3 3 -17 38 -44
78 -97 142 -196 308 -189 315 3 3 -4 14 -14 26 -11 11 -19 22 -17 23 1 1 47 4
102 8 108 6 132 10 185 33 99 43 240 116 236 121 -4 3 -39 -11 -79 -31 -105
-53 -184 -82 -254 -97 -76 -15 -209 -9 -227 11 -7 8 -27 47 -45 88 -37 85 -37
85 44 126 l50 25 5 -38 c9 -59 40 -104 90 -130 55 -28 77 -28 140 0 43 19 54
30 76 74 20 41 24 60 18 90 -3 22 -11 45 -17 52 -15 19 -4 23 55 23 59 0 60
-1 176 -31 46 -12 86 -19 89 -17 6 7 -99 57 -120 57 -9 0 -18 4 -21 9 -3 5
-34 12 -68 16 -35 4 -80 11 -100 16 -42 11 -128 -8 -282 -60 -47 -16 -86 -28
-86 -26 0 2 -14 -2 -32 -9 -27 -12 -33 -12 -48 3 -18 18 -40 65 -40 86 0 12
60 52 155 103 14 7 61 22 106 34 73 18 91 19 169 9 47 -6 105 -11 128 -11 23
0 50 -4 60 -9 57 -30 105 -51 118 -51 8 0 27 -8 42 -17 24 -16 24 -14 -6 16
-18 18 -32 35 -30 36 2 2 47 -2 100 -7 103 -11 176 2 187 33 3 12 1 12 -14 -1
-10 -8 -16 -10 -14 -5 32 68 39 88 33 94 -4 3 -9 -1 -12 -9 -9 -24 -74 -80
-94 -80 -11 0 -16 5 -13 10 3 6 11 10 16 10 11 0 39 25 39 34 0 3 -17 -5 -37
-17 -66 -39 -183 -36 -508 13 -154 23 -314 50 -355 60 -41 10 -103 24 -136 30
-66 13 -63 9 -90 110 l-7 25 22 -20 c17 -14 41 -20 92 -23 79 -5 127 14 193
76 44 42 117 151 134 201 27 76 7 164 -50 224 l-38 40 -78 -5 c-53 -4 -93 -13
-122 -28 -54 -27 -141 -87 -158 -109 -12 -13 -13 4 -7 109 4 69 11 136 16 149
5 13 15 58 23 100 8 42 19 96 25 121 6 25 13 56 16 70 3 14 9 32 15 40 9 13
11 13 20 0 5 -8 10 -10 10 -4 0 5 -5 15 -11 21 -7 7 -8 19 -4 30 5 10 7 24 6
31 -1 8 6 21 16 30 10 9 25 26 33 37 14 19 14 19 -4 5 -18 -14 -19 -13 -12 25
4 22 11 42 16 45 4 3 10 14 14 26 5 16 12 20 31 17 16 -4 22 -10 18 -21 -4
-10 -2 -13 5 -8 7 4 8 -2 2 -24 -8 -27 -7 -29 10 -20 10 6 22 15 26 22 4 6 3
9 -2 5 -5 -3 -10 12 -10 34 -1 40 11 50 34 27 21 -21 14 17 -9 46 -11 14 -16
26 -10 26 7 0 17 -11 23 -25 7 -15 20 -25 32 -25 20 -1 20 -1 3 -14 -15 -12
-16 -14 -2 -20 8 -3 15 0 15 6 0 6 3 9 6 5 13 -13 31 20 36 67 3 26 10 52 15
57 6 6 7 -9 3 -40 -3 -27 -3 -58 2 -70 7 -21 32 -28 42 -12 3 5 21 12 40 15
21 4 37 14 39 24 4 15 5 15 6 -2 1 -14 4 -16 15 -7 11 9 14 3 19 -34 4 -24 11
-53 16 -62 5 -10 30 -81 55 -158 48 -147 85 -247 86 -230 0 5 -18 61 -39 125
-21 63 -55 169 -75 235 -20 66 -44 145 -53 175 -20 66 -78 130 -116 130 -16 0
-34 -10 -46 -26z m-401 -769 c0 -14 -2 -25 -4 -25 -2 0 -6 11 -8 25 -3 14 -1
25 3 25 5 0 9 -11 9 -25z m-23 -127 c-2 -13 -4 -5 -4 17 -1 22 1 32 4 23 2
-10 2 -28 0 -40z m398 -43 c42 -20 85 -103 85 -163 0 -119 -127 -274 -265
-323 -30 -10 -60 -19 -68 -19 -20 0 -78 46 -98 77 -29 43 -18 146 13 127 5 -3
9 0 7 7 -6 45 31 90 109 135 61 34 151 44 175 19 29 -29 22 -94 -15 -140 -30
-37 -30 -38 -4 -15 115 103 55 229 -89 184 -55 -17 -121 -49 -146 -71 -15 -13
-17 -10 -21 23 -4 33 0 40 48 82 34 30 75 54 116 68 76 27 110 29 153 9z
m-330 -177 c-11 -54 -16 -68 -25 -68 -18 0 -16 50 3 75 27 33 30 32 22 -7z
m-18 -470 c-3 -8 -6 -5 -6 6 -1 11 2 17 5 13 3 -3 4 -12 1 -19z m51 3 c3 -8
-1 -12 -9 -9 -7 2 -15 10 -17 17 -3 8 1 12 9 9 7 -2 15 -10 17 -17z m32 -1 c0
-5 -2 -10 -4 -10 -3 0 -8 5 -11 10 -3 6 -1 10 4 10 6 0 11 -4 11 -10z m130
-21 c14 -4 18 -8 10 -9 -11 -1 -9 -4 5 -10 15 -7 9 -8 -22 -6 -36 4 -41 2 -40
-15 1 -13 6 -18 16 -14 12 5 12 3 0 -11 -12 -15 -11 -16 16 -10 17 3 37 2 45
-4 10 -6 11 -10 3 -10 -7 0 -13 -10 -13 -22 0 -22 -46 -62 -79 -70 -26 -6 -54
133 -30 148 8 5 7 9 -1 14 -7 4 -10 15 -7 24 6 16 32 15 97 -5z m-157 -24 c-3
-9 -8 -14 -10 -11 -3 3 -2 9 2 15 9 16 15 13 8 -4z m217 -5 c0 -5 -4 -10 -10
-10 -5 0 -10 5 -10 10 0 6 5 10 10 10 6 0 10 -4 10 -10z m-205 -20 c-3 -5 -1
-10 5 -10 6 0 8 -5 4 -11 -4 -7 -10 -7 -16 -1 -9 9 -3 32 8 32 3 0 2 -4 -1
-10z m985 -34 c0 -3 -4 -8 -10 -11 -5 -3 -10 -1 -10 4 0 6 5 11 10 11 6 0 10
-2 10 -4z m-464 -232 c-3 -8 1 -22 9 -30 20 -20 19 -49 -2 -82 -39 -61 -50
-67 -115 -66 -54 1 -63 4 -91 35 -18 18 -24 27 -15 20 12 -9 22 -9 35 -2 11 5
37 7 60 4 22 -3 49 0 61 6 25 13 37 63 22 90 -9 18 -8 21 10 21 11 0 20 5 20
10 0 6 3 10 6 10 3 0 3 -7 0 -16z m-152 -14 c53 -20 13 -68 -45 -55 -22 5 -29
12 -29 30 0 33 28 43 74 25z m78 -62 c-7 -7 -12 -8 -12 -2 0 6 3 14 7 17 3 4
9 5 12 2 2 -3 -1 -11 -7 -17z m-432 -112 c0 -7 11 -23 25 -36 14 -13 25 -27
25 -32 0 -16 -41 -8 -46 10 -3 9 -12 29 -20 44 -19 36 -19 55 1 38 8 -7 15
-18 15 -24z"/>
<path d="M1196 3294 c-33 -32 -37 -41 -32 -68 8 -39 31 -56 70 -55 l31 2 -30
4 c-40 6 -55 20 -55 52 0 31 14 50 52 74 40 25 78 23 78 -5 0 -15 3 -19 10
-12 22 22 -1 44 -45 44 -35 0 -48 -6 -79 -36z"/>
<path d="M1315 3210 c-16 -11 -25 -20 -19 -20 11 0 64 39 54 40 -3 0 -18 -9
-35 -20z"/>
<path d="M369 4483 c-13 -16 -12 -17 4 -4 9 7 17 15 17 17 0 8 -8 3 -21 -13z"/>
<path d="M340 4445 c-7 -9 -10 -18 -7 -21 3 -3 10 4 17 15 13 25 8 27 -10 6z"/>
<path d="M1935 4410 c10 -11 20 -20 23 -20 3 0 -3 9 -13 20 -10 11 -20 20 -23
20 -3 0 3 -9 13 -20z"/>
<path d="M307 4392 c-19 -20 -23 -37 -7 -27 10 6 33 45 27 45 -2 0 -11 -8 -20
-18z"/>
<path d="M4200 4357 c0 -4 16 -42 35 -83 19 -41 35 -77 35 -81 0 -4 9 -25 19
-47 18 -38 50 -140 82 -260 7 -28 14 -45 17 -38 3 11 -32 144 -63 237 -31 91
-123 293 -125 272z"/>
<path d="M261 4309 c-13 -22 -21 -42 -19 -45 3 -2 15 14 27 37 13 22 21 42 19
45 -3 2 -15 -14 -27 -37z"/>
<path d="M2046 4280 c46 -67 63 -86 38 -42 -10 19 -32 48 -47 65 -21 24 -19
18 9 -23z"/>
<path d="M4228 4221 c10 -28 18 -46 20 -41 5 13 -17 78 -28 85 -4 3 -1 -17 8
-44z"/>
<path d="M946 4245 c-9 -26 -7 -32 5 -12 6 10 9 21 6 23 -2 3 -7 -2 -11 -11z"/>
<path d="M220 4231 c-12 -24 -13 -34 -1 -27 9 6 22 46 15 46 -2 0 -8 -9 -14
-19z"/>
<path d="M2511 4225 c0 -5 6 -30 13 -55 8 -25 15 -36 15 -25 -1 21 -27 98 -28
80z"/>
<path d="M3840 4225 c0 -5 5 -17 10 -25 5 -8 10 -10 10 -5 0 6 -5 17 -10 25
-5 8 -10 11 -10 5z"/>
<path d="M2100 4196 c0 -2 7 -9 15 -16 13 -11 14 -10 9 4 -5 14 -24 23 -24 12z"/>
<path d="M3860 4179 c0 -3 16 -54 35 -115 35 -107 59 -206 70 -294 13 -102 17
-129 31 -215 24 -149 41 -345 38 -435 -4 -102 -24 -261 -33 -256 -3 2 -7 53
-9 113 -2 60 -8 124 -13 143 -7 31 -8 29 -4 -15 8 -86 6 -338 -4 -375 -5 -19
-9 -28 -10 -20 -5 73 -25 204 -36 240 -45 147 -90 270 -121 333 -8 16 -14 34
-14 40 0 33 -109 186 -228 322 -24 28 -49 57 -56 65 -7 8 -19 26 -26 40 -7 14
-16 27 -19 30 -12 10 -82 162 -88 191 -3 16 -12 34 -19 40 -20 16 -18 9 20
-89 19 -48 50 -132 69 -187 19 -55 42 -118 51 -139 25 -60 63 -213 70 -286 4
-36 13 -92 21 -125 7 -33 16 -96 20 -140 3 -44 10 -116 15 -160 6 -44 10 -107
10 -140 1 -44 3 -56 10 -43 7 11 6 58 -1 139 -6 67 -8 136 -5 153 4 21 3 26
-3 16 -7 -10 -10 1 -9 35 1 45 -10 112 -42 243 -14 58 -11 73 6 37 l14 -30 -6
34 c-4 19 -13 41 -20 49 -8 7 -14 25 -13 40 0 26 1 25 14 -8 18 -47 18 -33 0
36 -8 32 -13 59 -11 61 2 2 12 -20 24 -49 11 -29 21 -45 21 -36 1 26 -55 159
-64 150 -4 -4 -6 -1 -3 7 9 31 45 21 72 -19 14 -22 30 -40 35 -40 10 0 103
-134 100 -146 -4 -21 2 -35 11 -29 6 3 10 2 10 -4 0 -5 -5 -13 -11 -17 -8 -5
-6 -10 5 -16 18 -10 40 -56 62 -130 8 -27 20 -48 25 -48 6 0 8 -7 5 -16 -3 -8
-2 -13 3 -10 12 8 23 -37 15 -61 -5 -14 -4 -15 4 -4 8 11 12 6 17 -22 4 -20 4
-49 1 -64 -4 -17 -3 -23 2 -15 20 29 51 -149 52 -292 0 -49 3 -87 6 -83 3 3
12 39 20 79 7 40 20 97 29 127 15 56 26 120 30 181 1 19 5 76 9 125 4 50 3
144 -3 210 -11 129 -37 331 -45 343 -2 4 -9 52 -15 107 -13 112 -38 222 -76
339 -23 72 -44 120 -45 105z m-395 -429 c3 -5 1 -10 -4 -10 -6 0 -11 5 -11 10
0 6 2 10 4 10 3 0 8 -4 11 -10z m65 -86 c18 -26 26 -45 20 -49 -6 -4 -17 9
-25 29 -8 19 -20 38 -26 41 -6 4 -4 -6 5 -23 17 -32 31 -86 51 -187 l6 -30
-14 30 c-8 17 -17 48 -21 70 -4 21 -16 55 -26 75 -9 19 -21 50 -25 67 -5 28
-4 32 10 27 8 -4 29 -26 45 -50z"/>
<path d="M182 4145 c-17 -37 -14 -45 4 -12 9 16 14 31 11 33 -2 2 -9 -7 -15
-21z"/>
<path d="M902 4111 c-17 -48 -14 -63 4 -22 8 19 13 39 11 45 -2 6 -9 -5 -15
-23z"/>
<path d="M2166 4095 c14 -25 28 -45 30 -45 7 0 -35 78 -45 85 -6 3 2 -15 15
-40z"/>
<path d="M3300 4128 c0 -2 9 -25 20 -53 20 -48 20 -22 0 30 -8 20 -20 34 -20
23z"/>
<path d="M2551 4080 c0 -22 27 -78 28 -59 1 9 -6 30 -14 45 -8 16 -15 22 -14
14z"/>
<path d="M3000 4085 c0 -5 5 -17 10 -25 5 -8 10 -10 10 -5 0 6 -5 17 -10 25
-5 8 -10 11 -10 5z"/>
<path d="M4121 4077 c-1 -5 14 -44 33 -87 19 -43 41 -99 50 -126 8 -27 22 -67
29 -89 8 -22 31 -112 51 -200 33 -150 51 -265 91 -610 9 -77 23 -163 31 -192
18 -64 18 -84 1 -62 -13 17 -13 11 -17 -356 -2 -136 2 -199 15 -259 9 -43 14
-80 12 -82 -3 -3 -16 14 -29 38 -63 111 -91 257 -84 442 5 136 -3 113 -22 -69
-5 -44 -14 -98 -20 -120 -20 -70 -52 -226 -53 -253 0 -24 -2 -22 -16 13 -11
29 -13 61 -9 119 3 47 2 76 -3 70 -14 -14 -30 -267 -24 -364 5 -83 5 -85 -14
-68 -15 14 -20 34 -22 95 -1 43 -4 99 -5 126 -1 26 2 47 7 47 5 0 6 11 3 24
-4 15 2 43 14 71 11 26 18 50 15 55 -3 5 4 30 16 57 12 26 28 71 36 98 9 28
18 45 20 38 2 -7 0 -21 -6 -32 -6 -11 -11 -28 -10 -38 1 -31 26 38 33 92 3 28
13 68 21 90 8 22 14 54 13 70 0 20 -2 23 -5 10 -12 -53 -57 -174 -127 -345
-68 -166 -113 -446 -101 -630 l6 -85 -34 70 c-19 39 -40 97 -47 130 -16 77
-26 455 -13 455 6 0 9 -12 7 -27 -2 -16 -1 -21 2 -13 10 23 44 64 44 54 0 -5
5 -1 11 8 5 10 20 23 32 28 20 10 20 10 5 -3 -18 -15 -24 -37 -10 -37 16 0 41
55 32 71 -7 11 -3 22 10 36 10 12 16 24 13 27 -4 3 -2 6 4 6 6 0 14 12 18 28
3 15 14 36 23 47 9 11 10 15 3 8 -11 -10 -17 -9 -27 4 -10 15 -11 13 -8 -13 2
-22 -7 -46 -36 -90 -22 -32 -40 -56 -40 -53 0 12 35 75 52 93 20 22 24 41 6
30 -6 -4 -8 -3 -4 4 3 5 0 13 -6 15 -10 4 -10 6 0 6 14 1 17 31 3 31 -5 0 -4
13 2 30 7 19 15 26 21 20 6 -6 15 -5 24 3 13 10 14 9 3 -12 -8 -14 -9 -21 -2
-17 6 4 15 15 21 26 8 16 6 18 -14 16 -22 -3 -24 -1 -15 22 5 14 9 39 7 55 -2
21 2 31 12 32 12 2 15 -6 14 -34 -1 -44 5 -63 18 -55 7 4 6 9 -1 14 -8 5 -1
28 24 75 19 38 34 73 31 79 -2 6 -10 -4 -16 -22 -9 -25 -15 -30 -22 -20 -6 8
-7 5 -3 -12 4 -16 0 -33 -10 -45 -17 -20 -17 -14 1 30 3 8 2 15 -4 15 -7 0 -6
10 1 30 6 17 14 25 18 19 7 -13 37 75 36 106 0 11 2 38 6 60 6 39 6 39 -13
-10 l-18 -50 1 82 c1 46 6 83 11 83 4 0 6 12 2 28 -5 24 -4 23 10 -6 8 -18 12
-38 8 -43 -3 -6 2 -16 11 -23 21 -15 33 -113 29 -231 -2 -68 -1 -73 6 -35 5
25 9 77 10 115 1 62 3 67 13 45 22 -45 68 -112 74 -106 4 3 -1 14 -9 23 -24
29 -92 155 -110 203 -42 116 -68 218 -97 380 l-10 55 6 -65 c16 -160 6 -537
-14 -562 -6 -7 -16 -38 -23 -68 -7 -30 -26 -86 -41 -125 -16 -38 -29 -71 -29
-73 0 -2 -5 0 -12 4 -7 4 -8 3 -4 -5 4 -6 0 -18 -8 -27 -9 -8 -16 -22 -16 -30
0 -15 -33 -99 -72 -184 -19 -42 -185 -300 -193 -300 -2 0 5 26 15 58 30 98 61
235 64 287 2 28 11 122 21 210 18 167 16 288 -5 308 -10 10 -10 5 -4 -23 14
-56 9 -228 -10 -320 -17 -88 -67 -229 -119 -337 -16 -35 -31 -63 -32 -63 -1 0
2 19 6 43 17 79 31 231 34 362 2 72 6 211 10 310 3 102 2 199 -3 225 -7 34
-10 -3 -11 -155 -1 -270 -13 -356 -74 -505 -34 -84 -56 -127 -57 -110 -1 11
-4 9 -11 -5 -9 -20 -7 62 7 208 4 39 2 98 -5 135 -6 37 -15 92 -21 122 l-9 55
5 -50 c20 -220 13 -394 -20 -484 -28 -74 -126 -265 -147 -286 -20 -20 -20 -20
-4 25 43 118 68 408 46 511 -7 30 -14 64 -17 77 -2 13 -9 20 -14 17 -5 -3 -5
-17 0 -33 5 -15 11 -43 14 -62 3 -19 9 -50 12 -69 5 -27 4 -32 -7 -26 -11 7
-12 6 -2 -6 16 -20 10 -114 -12 -169 -9 -25 -22 -60 -29 -78 -7 -18 -18 -38
-25 -45 -13 -12 -11 10 5 98 6 33 5 375 -1 385 -3 5 -10 49 -16 97 -5 48 -15
91 -22 95 -7 4 -9 8 -5 8 4 0 4 10 -1 23 -4 12 -11 36 -15 52 l-7 30 20 -33
c12 -17 24 -50 27 -73 5 -29 9 -37 16 -27 7 9 8 5 5 -14 -2 -15 -1 -25 3 -23
4 3 13 -23 21 -58 7 -34 15 -55 16 -47 5 22 -32 169 -51 205 -9 17 -16 35 -16
42 0 13 -40 39 -40 26 0 -10 -20 19 -20 29 0 4 8 5 18 2 10 -4 13 -3 6 3 -6 4
-17 25 -24 45 -8 21 -19 39 -26 42 -8 3 -5 -8 6 -27 11 -18 20 -39 20 -47 -1
-8 -12 3 -25 25 -14 23 -25 33 -25 23 0 -9 4 -19 9 -22 15 -10 59 -112 66
-152 3 -22 13 -57 20 -79 23 -64 34 -252 24 -378 -9 -105 -36 -219 -66 -277
-7 -14 -13 -30 -13 -36 0 -7 -18 -55 -40 -108 -22 -53 -40 -102 -40 -110 0 -7
-6 -19 -14 -25 -11 -9 -14 23 -15 206 0 120 -5 250 -10 288 -19 146 -41 281
-50 315 -5 19 -12 64 -16 100 -3 36 -13 85 -21 110 -8 25 -16 79 -18 120 -2
41 -9 76 -15 78 -5 2 -7 10 -4 18 3 8 0 21 -7 29 -6 8 -10 20 -8 27 3 7 13 -9
23 -34 9 -26 21 -45 26 -43 4 3 11 0 15 -6 5 -8 3 -9 -5 -4 -7 4 -1 -12 13
-36 44 -76 66 -122 65 -138 0 -9 -8 0 -18 19 -27 56 -55 95 -70 98 -9 2 -5 -9
11 -30 14 -18 45 -70 70 -116 32 -58 47 -78 52 -67 4 11 2 14 -6 9 -8 -5 -9
-2 -5 10 7 19 -15 60 -26 49 -4 -3 -7 -2 -7 3 0 6 5 15 11 21 8 8 3 24 -15 59
-14 27 -26 53 -26 58 0 5 -8 18 -17 29 -17 19 -17 20 0 14 12 -5 9 3 -11 23
-16 16 -39 46 -50 67 -11 21 -25 37 -32 35 -8 -2 -10 3 -6 13 4 11 2 14 -6 9
-8 -5 -9 -2 -5 10 4 10 3 15 -3 11 -15 -9 -12 6 4 24 10 11 12 21 6 31 -9 13
-10 13 -10 0 0 -13 -1 -13 -11 0 -8 12 -9 10 -4 -9 5 -16 4 -21 -4 -17 -6 4
-11 14 -11 23 0 9 -3 13 -7 10 -4 -4 -12 6 -19 23 -7 16 -17 30 -22 30 -6 0
12 -44 39 -97 27 -54 51 -114 54 -133 3 -19 12 -60 20 -90 8 -30 24 -104 36
-165 39 -195 25 -612 -27 -822 -5 -18 -4 -24 5 -19 14 9 14 6 -5 -66 -21 -82
-12 -83 15 -2 12 37 37 99 56 138 18 39 36 78 38 86 13 36 6 -299 -7 -352 -7
-32 -10 -58 -7 -58 4 0 24 30 46 67 21 38 41 70 45 73 17 16 49 70 59 102 7
21 20 44 29 50 41 31 84 91 78 111 -3 13 -1 16 5 10 11 -11 -13 -148 -34 -190
-33 -63 -29 -78 8 -28 19 27 42 53 50 58 8 4 15 13 15 20 0 7 14 29 30 49 20
24 28 43 24 55 -4 13 -3 14 3 5 7 -10 17 -2 38 29 16 23 31 36 33 30 2 -6 8
-11 13 -11 11 0 49 74 49 97 0 12 3 14 11 6 8 -8 8 -17 -1 -33 -6 -12 -9 -24
-6 -27 3 -3 10 7 16 22 11 29 21 27 27 -3 13 -59 14 -105 5 -131 -13 -37 -5
-39 28 -8 33 30 53 25 38 -8 -6 -14 -16 -22 -21 -18 -6 4 -8 0 -4 -11 4 -10 7
-20 7 -22 0 -3 4 -3 10 1 14 9 -9 -52 -26 -66 -8 -6 -14 -19 -14 -28 1 -13 3
-13 15 3 11 15 15 16 16 5 1 -8 2 -25 2 -39 2 -29 39 -36 43 -7 1 9 -2 17 -8
17 -6 0 -8 9 -5 21 4 16 2 19 -11 14 -13 -5 -13 -2 2 14 10 11 23 18 29 14 5
-3 7 -1 3 5 -8 13 33 84 44 77 5 -3 14 8 22 25 7 17 18 28 25 26 6 -3 18 10
27 27 15 31 16 31 16 6 0 -14 -6 -48 -14 -75 -8 -27 -18 -71 -22 -99 -3 -27
-11 -59 -17 -70 -5 -11 -14 -33 -18 -50 -26 -104 -117 -314 -171 -395 -13 -20
-34 -55 -47 -80 -23 -42 -73 -116 -103 -150 -21 -25 -98 -140 -98 -147 0 -3
-19 -29 -43 -57 -23 -28 -59 -77 -81 -108 -21 -32 -42 -58 -46 -58 -4 0 -12
-12 -19 -26 -22 -49 -63 -96 -75 -84 -14 14 -26 13 -26 -4 0 -26 -29 -27 -36
-1 -3 14 -10 25 -15 25 -5 0 -6 -7 -2 -15 6 -17 -23 -55 -42 -55 -7 0 -16 -7
-19 -16 -9 -23 -8 -27 8 -21 11 4 13 1 9 -11 -4 -11 4 -8 24 11 34 32 43 34
43 9 0 -27 -84 -117 -136 -146 -32 -18 -61 -26 -95 -26 -48 0 -49 1 -49 30 0
27 8 35 33 31 4 0 7 4 7 9 0 6 5 10 10 10 6 0 11 -17 11 -37 1 -21 3 -29 6
-18 3 11 12 26 21 33 10 7 18 17 18 22 1 6 2 15 3 20 0 6 6 10 12 10 5 0 8 -4
4 -9 -3 -5 -1 -12 3 -15 5 -3 8 -18 6 -33 -4 -24 -3 -25 5 -8 5 11 10 32 10
47 1 20 5 26 16 22 8 -4 12 -10 9 -15 -6 -10 7 -12 30 -3 15 6 12 27 -6 51 -7
9 -16 9 -34 1 -20 -10 -27 -9 -35 3 -7 12 -9 11 -9 -3 0 -14 -27 -38 -43 -38
-3 0 -12 18 -20 39 -22 55 -38 60 -18 6 15 -42 15 -45 -4 -59 -11 -9 -27 -16
-37 -16 -13 0 -15 -7 -11 -40 4 -30 2 -40 -8 -41 -36 -3 -70 3 -136 24 -70 21
-71 23 -67 52 3 27 3 28 -4 5 -9 -27 -26 -29 -77 -10 -27 10 -27 11 -9 32 l19
21 -31 -17 -31 -18 -139 67 c-185 89 -211 103 -266 142 -26 18 -50 33 -54 33
-8 0 -143 80 -171 101 l-23 17 73 65 c67 61 131 117 221 195 34 28 45 32 104
34 l67 2 -63 3 -63 4 28 29 c27 27 34 29 168 39 127 10 300 39 291 48 -2 2
-57 -5 -122 -16 -66 -10 -164 -22 -219 -25 -84 -6 -105 -4 -132 11 -29 15 -36
16 -55 4 -32 -20 -95 -15 -125 9 l-26 20 24 0 c55 1 174 12 178 16 2 2 -54 4
-125 4 -145 0 -193 14 -205 60 -5 22 -7 23 -14 7 -10 -23 18 -54 56 -62 22 -5
120 -62 159 -92 5 -5 -32 -36 -127 -109 -40 -30 -81 -63 -90 -72 -38 -39 -111
-92 -125 -92 -9 0 -21 7 -28 15 -7 8 -17 15 -23 15 -5 0 2 -10 17 -21 26 -21
27 -22 9 -42 -13 -15 -7 -13 17 6 19 15 40 31 45 35 6 4 47 38 93 75 84 68
123 82 150 55 18 -18 14 -55 -7 -70 -59 -42 -273 -249 -265 -257 3 -3 13 3 22
14 9 11 31 33 49 49 l32 28 46 -31 c25 -17 49 -31 53 -31 4 0 28 -18 52 -40
24 -22 47 -40 50 -40 3 0 22 -16 42 -35 20 -19 41 -35 47 -35 6 0 11 -4 11
-10 0 -5 9 -10 19 -10 10 0 22 -8 26 -17 7 -17 8 -16 15 2 9 20 9 20 9 0 1
-29 107 -111 125 -96 10 8 12 5 12 -12 -1 -12 4 -21 11 -20 6 1 16 -11 22 -28
13 -37 28 -31 26 11 -2 29 -1 30 19 15 12 -8 27 -18 35 -22 8 -4 22 -13 30
-20 9 -8 27 -23 41 -33 14 -11 20 -19 13 -20 -6 0 -18 6 -25 12 -22 22 -94 68
-104 68 -5 0 -1 -5 8 -10 9 -6 19 -24 23 -41 4 -17 13 -33 21 -36 8 -3 14 -11
14 -19 0 -8 9 -14 20 -14 11 0 20 -5 20 -11 0 -6 8 -9 18 -7 9 2 22 -3 28 -11
6 -8 16 -11 22 -7 15 9 3 36 -17 37 -11 0 -12 2 -3 6 7 3 27 -1 44 -8 27 -11
29 -14 12 -20 -17 -7 -17 -8 3 -8 12 -1 30 -4 40 -7 16 -6 16 -5 -2 9 -20 16
-19 16 7 15 15 -1 30 -8 33 -16 2 -7 0 -10 -5 -7 -6 3 -10 2 -10 -4 0 -16 21
-24 33 -12 6 6 17 11 24 11 18 0 12 -43 -7 -51 -16 -7 -50 9 -63 29 -6 10 -12
9 -24 -4 -15 -15 -15 -17 0 -26 10 -5 14 -14 11 -20 -5 -7 -2 -8 6 -3 24 15
94 11 140 -7 31 -13 37 -17 19 -16 -14 2 -34 -4 -43 -11 -13 -11 -20 -11 -28
-3 -9 9 -8 12 4 12 9 0 19 4 23 10 6 10 -47 6 -66 -6 -8 -4 -9 -3 -5 4 10 16
-2 15 -18 -1 -14 -13 -10 -37 5 -37 6 0 7 4 4 10 -3 6 4 10 17 9 13 0 17 -3
11 -6 -7 -2 -13 -9 -13 -14 0 -6 5 -7 10 -4 6 3 10 1 10 -4 0 -6 14 -11 30
-11 17 0 30 -4 30 -10 0 -5 -19 -7 -42 -5 l-43 5 33 -13 c18 -7 30 -16 25 -21
-4 -4 1 -7 12 -6 35 4 55 0 55 -10 0 -5 -18 -10 -41 -10 -22 0 -38 -4 -34 -9
3 -6 28 -8 55 -6 28 1 50 -1 50 -6 0 -5 -3 -8 -7 -7 -12 2 -47 -14 -63 -30
-13 -13 -10 -14 18 -10 18 2 32 1 32 -4 0 -4 18 -8 39 -8 27 0 41 5 45 16 9
22 0 30 -17 15 -10 -8 -22 -8 -38 -2 -23 9 -23 10 -2 10 12 1 25 6 28 11 4 6
11 8 16 5 5 -4 9 -1 9 5 0 7 6 8 19 1 14 -8 22 -7 32 5 12 15 9 16 -30 10 -30
-4 -47 -2 -57 9 -9 9 -10 16 -4 20 6 3 13 -1 16 -10 6 -14 8 -14 24 0 10 9 32
15 52 13 18 -1 39 2 46 6 11 7 16 -6 15 -41 -1 -7 4 -10 10 -6 6 4 8 0 4 -10
-8 -22 1 -22 26 1 20 17 20 17 3 -16 -10 -19 -31 -39 -48 -47 l-31 -13 42 0
c36 -1 43 3 53 26 6 15 10 31 9 35 -1 5 3 6 9 2 7 -4 6 -13 -1 -28 -10 -19 -9
-20 2 -7 8 8 21 20 29 27 13 11 13 12 -2 7 -21 -7 -24 11 -4 23 7 4 17 19 20
33 l7 25 -22 -25 -21 -25 16 25 c26 40 37 71 31 90 -3 9 8 40 24 70 28 51 29
54 13 87 -15 31 -15 35 4 61 31 42 39 56 26 49 -17 -12 -2 30 19 49 11 9 22
14 27 9 4 -4 1 -10 -5 -12 -7 -3 -13 -9 -13 -15 0 -5 27 19 60 54 33 34 60 57
60 49 0 -8 3 -11 8 -7 4 4 7 11 7 16 0 17 83 94 148 136 76 51 87 65 26 33
-48 -24 -53 -28 -123 -91 -29 -27 -56 -45 -59 -41 -4 3 -1 13 6 21 9 12 3 10
-20 -3 -18 -11 -33 -25 -33 -32 0 -7 -3 -13 -7 -13 -12 0 -44 -61 -38 -71 4
-5 0 -6 -8 -3 -8 3 -28 -7 -46 -21 -17 -15 -31 -22 -31 -17 0 5 16 22 35 37
19 16 32 31 30 35 -3 4 9 23 25 41 16 19 30 40 30 47 0 6 5 12 11 12 5 0 7 5
4 10 -4 6 -1 17 5 25 6 8 9 19 6 24 -4 6 7 9 29 7 23 -1 35 2 35 10 0 16 34
36 45 26 5 -4 5 -1 1 6 -4 7 -1 12 8 12 8 0 21 6 28 14 20 19 58 30 58 16 0
-6 5 -8 12 -4 7 4 8 3 4 -5 -4 -6 -11 -9 -16 -6 -4 3 -10 -2 -14 -10 -3 -8
-12 -15 -21 -15 -8 0 -15 -4 -15 -9 0 -12 42 -1 59 17 8 7 24 11 36 8 12 -3
37 2 56 12 23 12 50 16 78 14 l42 -4 -2 -87 c-2 -102 -34 -374 -48 -411 -5
-14 -13 -38 -16 -55 -5 -25 -18 -35 -73 -63 -151 -73 -346 -202 -330 -218 3
-2 16 5 29 16 36 31 117 85 184 124 79 45 174 96 180 96 2 0 6 -10 8 -22 3
-15 5 -9 6 14 0 21 8 57 15 80 13 37 25 108 60 363 3 22 8 65 11 95 3 30 10
77 15 103 13 65 11 79 -5 37 l-13 -35 -1 55 c-1 33 7 77 20 110 11 30 21 60
23 67 1 7 9 20 17 30 17 22 39 60 39 69 0 4 -10 -6 -22 -22 -13 -16 -28 -35
-35 -42 -13 -13 -17 -28 -14 -46 2 -9 -18 -36 -28 -36 -13 0 -5 61 9 71 13 8
13 11 -1 22 -9 6 -14 18 -12 25 3 6 -1 12 -7 12 -9 0 -11 14 -8 45 3 24 2 42
-3 39 -5 -2 -2 10 5 28 7 18 11 39 9 46 -3 7 1 11 7 10 7 -2 15 3 18 11 3 9 0
11 -8 6 -9 -5 -11 -4 -6 4 4 6 12 9 17 6 5 -4 9 5 9 19 0 14 4 27 9 30 16 10
9 -49 -10 -72 -10 -13 -16 -29 -13 -37 3 -7 -2 -27 -10 -44 -9 -16 -14 -40
-13 -53 5 -30 22 -20 18 11 -2 14 1 21 8 17 7 -5 8 -1 5 9 -5 12 -2 16 11 13
10 -2 20 3 22 10 3 8 -1 10 -13 5 -12 -4 -15 -3 -10 5 4 7 12 12 17 12 13 0
69 58 69 71 0 6 -4 7 -10 4 -16 -10 -12 1 13 37 20 31 59 105 79 153 4 11 9
32 10 48 1 15 7 26 12 24 6 -2 30 -42 55 -90 35 -69 47 -84 58 -76 7 6 13 17
13 25 0 15 34 36 44 27 3 -3 6 2 5 13 -1 27 -17 72 -18 53 -1 -8 -12 -37 -26
-64 l-24 -49 -12 30 c-21 50 -30 394 -10 394 4 0 15 -17 24 -37 16 -38 77
-113 91 -113 4 0 2 9 -4 19 -6 11 -10 81 -9 163 l1 143 17 -50 c9 -27 25 -66
34 -85 l17 -35 -3 48 c-1 26 0 47 3 47 15 0 64 -164 78 -260 5 -36 17 -117 26
-180 9 -63 25 -169 37 -235 19 -112 29 -155 64 -280 8 -27 20 -70 27 -95 6
-25 16 -51 21 -57 6 -9 5 -18 -3 -28 -10 -12 -10 -15 1 -15 16 0 47 -69 56
-124 3 -21 12 -40 19 -43 7 -2 15 -16 19 -30 3 -14 8 -23 11 -21 5 5 -11 57
-32 105 -18 40 -18 49 1 33 14 -12 14 -10 4 16 -19 49 -27 104 -16 111 6 4 3
9 -9 14 -17 6 -16 8 10 18 16 6 26 14 23 17 -3 3 -15 0 -28 -6 -19 -11 -21
-10 -16 3 3 9 1 18 -6 20 -7 3 4 12 23 21 l35 17 -35 -7 c-46 -8 -28 14 22 27
l33 8 -34 -3 -33 -3 23 19 c24 19 24 19 -15 3 -21 -8 -40 -15 -42 -15 -2 0 -3
17 -2 39 1 37 3 38 50 50 26 7 48 17 48 21 0 5 -20 2 -46 -7 -25 -8 -48 -13
-51 -10 -3 3 8 9 23 13 16 4 35 13 42 21 16 15 8 16 -36 4 -20 -6 -32 -6 -32
0 0 5 8 9 18 10 11 1 8 4 -8 9 -22 6 -23 8 -7 15 15 6 16 10 5 17 -9 6 -3 7
17 3 16 -4 27 -3 23 1 -4 4 0 13 10 20 14 11 11 12 -21 3 -22 -6 -40 -9 -42
-7 -10 9 16 31 51 43 33 12 35 14 14 15 -23 1 -24 2 -5 10 14 7 9 8 -17 4 -37
-6 -53 7 -25 20 6 3 0 4 -15 2 -24 -3 -28 0 -28 20 0 19 5 24 24 24 19 0 23 4
19 20 -4 14 0 20 11 20 9 0 16 5 16 11 0 6 -9 8 -20 5 -11 -3 -29 -9 -40 -12
-29 -8 -25 3 8 20 l27 15 -25 1 c-23 1 -23 2 -5 10 11 5 29 11 40 15 16 5 17
8 5 15 -10 7 -11 10 -2 10 6 0 12 7 12 15 0 9 15 22 33 30 22 10 26 14 13 15
-11 0 -16 3 -13 6 3 4 2 15 -4 25 -7 15 -6 19 5 19 8 0 17 4 21 9 7 12 -62 2
-90 -12 -11 -6 -28 -21 -38 -34 -10 -12 -23 -23 -28 -23 -25 0 63 72 102 83
24 7 44 18 44 24 0 6 3 15 8 19 12 13 8 27 -5 17 -20 -15 -50 -24 -43 -13 3 6
-2 10 -12 11 -10 1 0 7 22 13 l40 13 3 58 c2 40 -1 61 -10 66 -10 7 -10 9 2
10 10 0 8 3 -5 9 -17 7 -17 9 -2 9 9 1 17 7 17 14 0 17 -63 21 -109 7 -19 -5
-37 -8 -39 -5 -7 7 49 27 76 27 12 0 25 4 28 9 3 5 14 9 25 9 10 0 19 5 19 11
0 8 -11 9 -32 5 -24 -4 -29 -3 -18 4 8 5 23 10 33 10 25 0 21 28 -5 33 l-23 4
23 2 c13 0 22 7 22 17 0 16 -11 16 -67 -2 -10 -3 -7 1 7 10 14 8 34 16 45 16
17 0 17 2 5 10 -10 6 -11 10 -2 10 18 0 15 18 -5 23 -17 4 -17 5 0 6 9 0 17 6
17 11 0 13 -6 13 -32 -1 -11 -6 -22 -8 -25 -5 -3 3 10 12 28 20 29 12 31 14
11 15 -13 1 -21 5 -18 10 3 5 -6 12 -22 16 -26 6 -26 7 -8 21 11 8 24 14 30
14 5 0 1 -7 -10 -15 -23 -17 -3 -20 28 -4 17 9 18 13 7 20 -10 6 -11 9 -1 9 6
0 12 7 12 15 0 9 -6 12 -17 9 -17 -5 -17 -5 0 9 20 17 25 83 5 71 -10 -6 -10
-5 0 8 6 8 11 27 10 42 -2 23 -4 25 -14 12 -6 -9 -15 -16 -19 -16 -4 0 -21
-10 -38 -21 -23 -15 -19 -9 13 20 32 30 38 39 20 31 l-25 -11 24 20 c12 12 27
18 32 15 5 -3 8 8 7 25 -1 17 -4 31 -7 31 -2 0 -25 -13 -50 -29 -41 -25 -47
-26 -47 -10 0 9 3 16 7 13 4 -2 12 2 18 10 9 11 9 15 -1 18 -10 4 -10 8 1 21
9 12 10 17 2 17 -6 0 -14 -8 -18 -17 -3 -10 -15 -27 -26 -38 -19 -17 -20 -18
-14 -1 21 55 20 62 -12 60 -17 -1 -34 3 -39 10 -9 13 -4 136 6 136 4 0 15 -17
24 -38 l17 -37 -6 38 c-5 34 -3 37 19 37 18 0 29 -9 43 -37 10 -21 20 -32 22
-25 3 7 -1 19 -7 27 -20 24 -4 43 37 48 37 3 36 4 -8 5 -44 2 -47 4 -53 35
-15 79 -45 171 -45 142 -1 -16 8 -59 19 -95 27 -88 25 -94 -11 -36 -65 104
-71 121 -72 216 -1 49 -5 84 -9 77 -8 -12 -14 71 -11 152 1 25 -2 39 -6 32 -8
-13 -25 115 -23 182 0 22 -4 37 -11 37 -8 0 -7 3 1 9 11 6 12 24 7 75 -4 36
-10 64 -14 61 -4 -2 -7 20 -7 50 1 29 5 51 10 48 5 -3 6 5 3 18 -3 13 -9 45
-12 70 -4 30 -12 46 -21 46 -8 0 -14 -4 -14 -9 0 -4 4 -8 8 -8 5 0 9 -6 9 -12
1 -7 4 -32 8 -54 5 -31 3 -45 -8 -55 -11 -10 -12 -21 -5 -47 5 -18 8 -41 6
-50 -2 -9 -12 19 -22 63 -10 44 -22 92 -26 108 -6 18 -5 27 2 27 7 0 5 6 -4
13 -9 6 -26 44 -38 82 -22 68 -98 238 -99 222z m196 -579 c-3 -8 -6 -5 -6 6
-1 11 2 17 5 13 3 -3 4 -12 1 -19z m17 -33 c3 -8 1 -15 -4 -15 -6 0 -10 7 -10
15 0 8 2 15 4 15 2 0 6 -7 10 -15z m-147 -686 c-7 -18 -16 -29 -19 -24 -3 6 1
28 10 50 10 24 18 34 20 24 2 -9 -3 -32 -11 -50z m20 -21 c-3 -8 -6 -5 -6 6
-1 11 2 17 5 13 3 -3 4 -12 1 -19z m261 -57 c16 -28 10 -36 -16 -22 -11 6 -21
9 -23 6 -2 -2 -4 16 -4 39 0 40 1 41 15 22 8 -12 21 -32 28 -45z m-777 -328
c-8 -15 -10 -15 -11 -2 0 17 10 32 18 25 2 -3 -1 -13 -7 -23z m869 -43 c0 -5
-5 -10 -11 -10 -5 0 -7 5 -4 10 3 6 8 10 11 10 2 0 4 -4 4 -10z m-1427 -175
c8 -22 6 -31 -7 -40 -9 -7 -16 -19 -16 -27 0 -19 -23 -68 -32 -68 -11 0 -10 6
9 67 9 29 20 53 25 53 4 0 8 10 8 22 0 21 0 21 -15 2 -15 -20 -19 -16 -9 11 9
23 26 14 37 -20z m378 -18 c-10 -9 -11 -8 -5 6 3 10 9 15 12 12 3 -3 0 -11 -7
-18z m259 -58 c0 -6 -5 -7 -12 -3 -8 5 -9 1 -4 -12 6 -15 4 -16 -5 -7 -14 14
-4 47 11 38 5 -3 10 -11 10 -16z m710 1 c0 -5 -5 -10 -11 -10 -5 0 -7 5 -4 10
3 6 8 10 11 10 2 0 4 -4 4 -10z m-1128 -42 c-7 -7 -12 -8 -12 -2 0 14 12 26
19 19 2 -3 -1 -11 -7 -17z m754 -80 c2 -29 6 -64 10 -78 4 -18 2 -22 -5 -14
-16 15 -36 117 -27 139 10 27 18 12 22 -47z m284 18 c0 -2 -8 -10 -17 -17 -16
-13 -17 -12 -4 4 13 16 21 21 21 13z m155 -86 c-3 -5 -10 -10 -16 -10 -5 0 -9
5 -9 10 0 6 7 10 16 10 8 0 12 -4 9 -10z m-130 -50 c-3 -5 -11 -10 -16 -10 -6
0 -7 5 -4 10 3 6 11 10 16 10 6 0 7 -4 4 -10z m-519 -37 c-11 -11 -17 4 -9 23
7 18 8 18 11 1 2 -10 1 -21 -2 -24z m44 2 c0 -8 -2 -15 -4 -15 -2 0 -6 7 -10
15 -3 8 -1 15 4 15 6 0 10 -7 10 -15z m560 7 c0 -4 -9 -8 -20 -9 -11 -1 -18 2
-15 8 7 11 35 12 35 1z m57 -18 c-3 -3 -12 -4 -19 -1 -8 3 -5 6 6 6 11 1 17
-2 13 -5z m-650 -26 c-3 -8 -6 -5 -6 6 -1 11 2 17 5 13 3 -3 4 -12 1 -19z m20
-20 c-3 -7 -5 -2 -5 12 0 14 2 19 5 13 2 -7 2 -19 0 -25z m29 -55 c-4 -42 -14
-92 -23 -112 l-17 -36 -4 28 c-2 15 -8 27 -13 27 -5 0 -9 10 -8 23 0 21 1 21
9 2 7 -17 9 -17 9 -3 1 23 42 148 49 148 3 0 2 -35 -2 -77z m-79 45 c-3 -8 -6
-5 -6 6 -1 11 2 17 5 13 3 -3 4 -12 1 -19z m578 12 c-3 -6 -21 -17 -38 -26
l-32 -15 30 25 c30 26 51 34 40 16z m65 -4 c0 -2 -9 -6 -20 -9 -11 -3 -18 -1
-14 4 5 9 34 13 34 5z m50 -6 c0 -5 -2 -10 -4 -10 -3 0 -8 5 -11 10 -3 6 -1
10 4 10 6 0 11 -4 11 -10z m-674 -46 c-6 -17 -26 -10 -26 9 0 7 4 6 10 -3 8
-12 10 -8 11 15 1 18 3 23 6 12 3 -10 2 -25 -1 -33z m-29 -51 c-3 -10 -5 -4
-5 12 0 17 2 24 5 18 2 -7 2 -21 0 -30z m-55 -25 c-7 -7 -12 -8 -12 -2 0 14
12 26 19 19 2 -3 -1 -11 -7 -17z m24 -35 c-10 -26 -18 -8 -9 23 5 21 8 24 11
11 2 -10 1 -25 -2 -34z m584 3 c0 -3 -4 -8 -10 -11 -5 -3 -10 -1 -10 4 0 6 5
11 10 11 6 0 10 -2 10 -4z m130 -26 c-8 -5 -22 -9 -30 -9 -10 0 -8 3 5 9 27
12 43 12 25 0z m-725 -66 c-8 -20 -18 -34 -22 -31 -3 4 -1 12 4 19 6 7 14 29
19 48 4 20 9 28 11 18 2 -9 -3 -33 -12 -54z m-45 46 c0 -5 -5 -10 -11 -10 -5
0 -7 5 -4 10 3 6 8 10 11 10 2 0 4 -4 4 -10z m729 -13 c-31 -22 -59 -35 -59
-27 0 6 10 15 23 20 21 8 45 13 36 7z m-734 -77 c-3 -5 -12 -10 -18 -10 -7 0
-6 4 3 10 19 12 23 12 15 0z m92 -22 c-3 -8 -6 -5 -6 6 -1 11 2 17 5 13 3 -3
4 -12 1 -19z m-111 -33 c-16 -16 -23 -17 -29 -8 -12 19 -3 28 26 28 l25 0 -22
-20z m85 -8 c-8 -8 -11 -7 -11 4 0 20 13 34 18 19 3 -7 -1 -17 -7 -23z m645 8
c-23 -17 -36 -19 -36 -6 0 11 18 19 40 20 11 0 10 -3 -4 -14z m-2327 -139 c9
-11 8 -18 -4 -30 -15 -14 -18 -14 -37 4 -12 11 -24 17 -27 14 -3 -3 2 -10 12
-15 27 -15 21 -34 -25 -76 -22 -21 -49 -46 -60 -55 -22 -22 -38 -23 -38 -3 0
8 -14 22 -30 30 l-31 16 53 42 c106 85 160 106 187 73z m2321 -16 c0 -5 -5
-10 -11 -10 -5 0 -7 5 -4 10 3 6 8 10 11 10 2 0 4 -4 4 -10z m-880 -116 c0 -2
-7 -4 -15 -4 -8 0 -15 4 -15 10 0 5 7 7 15 4 8 -4 15 -8 15 -10z m-10 -34 c-6
-11 -13 -20 -16 -20 -2 0 0 9 6 20 6 11 13 20 16 20 2 0 0 -9 -6 -20z m30 -10
c0 -5 -4 -10 -10 -10 -5 0 -10 5 -10 10 0 6 5 10 10 10 6 0 10 -4 10 -10z m44
3 c-5 -5 -12 -12 -16 -18 -4 -6 -8 -2 -8 8 0 9 7 17 17 17 9 0 12 -3 7 -7z
m-59 -27 c17 -2 29 -9 28 -15 -2 -6 5 -11 15 -12 12 0 10 -3 -7 -10 -19 -8
-27 -6 -33 6 -5 8 -14 15 -19 15 -6 0 -3 -7 5 -16 9 -8 13 -20 10 -26 -3 -5 2
-9 12 -8 32 4 68 0 62 -6 -3 -3 -24 -7 -47 -9 -23 -3 -52 -12 -64 -21 -20 -15
-20 -16 -2 -11 11 2 29 8 40 12 11 3 8 -1 -7 -10 -38 -21 -35 -26 10 -19 20 3
48 1 62 -6 22 -9 22 -10 3 -6 -12 2 -27 -2 -34 -10 -6 -8 -19 -14 -28 -14 -9
0 -31 -9 -50 -21 -38 -23 -52 -18 -28 9 21 23 22 43 2 36 -9 -4 -14 -14 -13
-23 2 -12 -6 -17 -32 -19 -19 -2 -41 -8 -48 -14 -10 -8 -11 -7 -6 7 5 13 4 16
-4 11 -35 -21 10 52 59 96 27 25 29 29 11 24 -25 -8 -27 -4 -11 25 5 11 14 17
19 14 5 -3 11 4 15 15 5 15 12 19 28 15 12 -3 36 -7 52 -9z m135 -62 c0 -8 -5
-12 -10 -9 -6 4 -8 11 -5 16 9 14 15 11 15 -7z m-315 -76 c-26 -34 -46 -58
-44 -53 8 20 82 125 86 121 3 -2 -17 -33 -42 -68z m315 -8 c0 -5 -2 -10 -4
-10 -3 0 -8 5 -11 10 -3 6 -1 10 4 10 6 0 11 -4 11 -10z m777 -12 c-3 -8 -6
-5 -6 6 -1 11 2 17 5 13 3 -3 4 -12 1 -19z m-887 -32 c0 -13 -66 -33 -76 -23
-5 4 55 36 69 37 4 0 7 -6 7 -14z m-287 -31 c-3 -9 -8 -14 -10 -11 -3 3 -2 9
2 15 9 16 15 13 8 -4z m62 -6 c-4 -6 -14 -8 -22 -5 -8 3 -11 1 -8 -4 3 -6 4
-10 1 -10 -2 0 -12 -3 -21 -6 -15 -6 -15 -4 -4 15 8 11 24 21 37 21 14 0 21
-4 17 -11z m-75 -29 c0 -5 -5 -10 -11 -10 -5 0 -7 5 -4 10 3 6 8 10 11 10 2 0
4 -4 4 -10z m35 -20 c-3 -5 -13 -10 -21 -10 -8 0 -12 5 -9 10 3 6 13 10 21 10
8 0 12 -4 9 -10z m-85 -94 c0 -3 -4 -8 -10 -11 -5 -3 -10 -1 -10 4 0 6 5 11
10 11 6 0 10 -2 10 -4z m-210 -51 c-21 -25 -32 -17 -13 9 10 13 20 20 21 15 2
-5 -2 -16 -8 -24z m70 26 c0 -13 -29 -35 -37 -28 -7 8 15 37 28 37 5 0 9 -4 9
-9z m-920 -73 c19 -16 26 -25 15 -19 -31 16 -71 51 -60 50 6 0 26 -14 45 -31z
m970 -2 c0 -2 -8 -10 -17 -17 -16 -13 -17 -12 -4 4 13 16 21 21 21 13z m-799
-74 c-7 -2 -23 6 -35 18 l-21 22 35 -18 c21 -10 30 -19 21 -22z m44 -102 c-3
-5 -11 -10 -16 -10 -6 0 -7 5 -4 10 3 6 11 10 16 10 6 0 7 -4 4 -10z m140 -12
c6 -4 2 -8 -7 -8 -10 0 -18 7 -18 17 0 9 3 12 8 7 4 -5 12 -12 17 -16z m538
-23 c-3 -9 -8 -14 -10 -11 -3 3 -2 9 2 15 9 16 15 13 8 -4z m-93 -5 c0 -5 -5
-10 -11 -10 -5 0 -7 5 -4 10 3 6 8 10 11 10 2 0 4 -4 4 -10z m59 -12 c-26 -24
-49 -41 -49 -35 0 9 53 57 58 52 3 -2 -2 -10 -9 -17z m-134 -14 c-32 -25 -55
-36 -55 -26 0 13 41 41 60 41 11 0 10 -4 -5 -15z m-205 -4 l25 -8 -25 -1 c-14
0 -32 4 -40 9 -13 9 -13 10 0 9 8 -1 26 -5 40 -9z m245 0 c-3 -5 -11 -10 -16
-10 -6 0 -7 5 -4 10 3 6 11 10 16 10 6 0 7 -4 4 -10z m150 0 c-3 -5 -11 -10
-16 -10 -6 0 -7 5 -4 10 3 6 11 10 16 10 6 0 7 -4 4 -10z m25 -4 c0 -2 -8 -10
-17 -17 -16 -13 -17 -12 -4 4 13 16 21 21 21 13z m-140 -11 c0 -2 -10 -10 -22
-16 -21 -11 -22 -11 -9 4 13 16 31 23 31 12z m76 -33 c-17 -16 -18 -16 -5 5 7
12 15 20 18 17 3 -2 -3 -12 -13 -22z m-76 -6 c0 -3 -4 -8 -10 -11 -5 -3 -10
-1 -10 4 0 6 5 11 10 11 6 0 10 -2 10 -4z m-164 -15 c-8 -12 -46 -21 -46 -11
0 5 10 11 23 13 12 2 23 5 25 6 2 0 1 -3 -2 -8z m-76 -11 c13 -9 13 -10 0 -10
-8 0 -22 5 -30 10 -13 9 -13 10 0 10 8 0 22 -5 30 -10z m170 0 c0 -5 -7 -10
-16 -10 -8 0 -12 5 -9 10 3 6 10 10 16 10 5 0 9 -4 9 -10z m36 -5 c-3 -8 0
-15 6 -15 7 0 7 -4 -1 -14 -10 -11 -8 -16 9 -21 26 -8 16 -20 -24 -29 -23 -6
-27 -4 -23 8 5 13 -2 16 -31 17 -31 2 -32 3 -9 6 16 3 31 11 34 19 3 7 9 12
13 9 5 -3 11 4 15 15 3 11 9 20 12 20 3 0 3 -7 -1 -15z m42 -27 c-2 -6 -10
-14 -16 -16 -7 -2 -10 2 -6 12 7 18 28 22 22 4z m84 -35 c-15 -36 -47 -83 -60
-88 -14 -5 -13 -3 32 63 30 45 40 53 28 25z m-272 -13 c0 -5 -4 -10 -10 -10
-5 0 -10 5 -10 10 0 6 5 10 10 10 6 0 10 -4 10 -10z m100 0 c0 -5 -9 -10 -20
-10 -11 0 -20 5 -20 10 0 6 9 10 20 10 11 0 20 -4 20 -10z m-135 -30 c4 -6 -5
-10 -19 -10 -14 0 -26 5 -26 10 0 6 9 10 19 10 11 0 23 -4 26 -10z m185 6 c0
-8 -71 -12 -76 -4 -3 4 13 8 35 8 23 0 41 -2 41 -4z m50 -3 c-1 -14 -30 -47
-36 -41 -3 4 3 15 13 26 21 23 23 25 23 15z"/>
<path d="M3550 999 c0 -5 5 -7 10 -4 6 3 10 8 10 11 0 2 -4 4 -10 4 -5 0 -10
-5 -10 -11z"/>
<path d="M3575 900 c-3 -5 -1 -10 4 -10 6 0 11 5 11 10 0 6 -2 10 -4 10 -3 0
-8 -4 -11 -10z"/>
<path d="M3440 893 c0 -5 14 -9 30 -10 18 -1 28 2 25 7 -7 12 -55 14 -55 3z"/>
<path d="M4276 4071 c-4 -7 -5 -15 -2 -18 9 -9 19 4 14 18 -4 11 -6 11 -12 0z"/>
<path d="M881 4024 c0 -11 3 -14 6 -6 3 7 2 16 -1 19 -3 4 -6 -2 -5 -13z"/>
<path d="M4256 4025 c4 -8 8 -15 10 -15 2 0 4 7 4 15 0 8 -4 15 -10 15 -5 0
-7 -7 -4 -15z"/>
<path d="M4295 4020 c3 -5 8 -10 11 -10 2 0 4 5 4 10 0 6 -5 10 -11 10 -5 0
-7 -4 -4 -10z"/>
<path d="M2220 4000 c6 -11 13 -20 16 -20 2 0 0 9 -6 20 -6 11 -13 20 -16 20
-2 0 0 -9 6 -20z"/>
<path d="M3696 4007 c3 -10 9 -15 12 -12 3 3 0 11 -7 18 -10 9 -11 8 -5 -6z"/>
<path d="M861 3963 c-6 -21 -11 -47 -10 -58 0 -11 7 4 15 34 8 30 12 56 10 58
-3 3 -9 -12 -15 -34z"/>
<path d="M106 3955 c-9 -26 -7 -32 5 -12 6 10 9 21 6 23 -2 3 -7 -2 -11 -11z"/>
<path d="M2594 3960 c6 -20 73 -184 84 -207 5 -10 31 -63 58 -118 27 -55 52
-101 57 -103 4 -2 7 -8 7 -14 0 -6 9 -26 21 -45 17 -28 24 -32 36 -22 11 10
14 10 11 -2 -2 -8 2 -13 7 -12 6 0 19 -10 29 -25 11 -14 14 -22 8 -18 -17 10
-15 -3 3 -20 8 -9 15 -21 15 -27 0 -7 -5 -4 -11 6 -5 9 -14 17 -19 17 -18 0
40 -76 85 -110 18 -15 19 -14 3 8 -9 13 -26 30 -37 38 -22 16 -30 41 -9 28 7
-5 9 -2 4 7 -4 8 2 2 14 -14 12 -15 25 -25 28 -23 4 2 16 -6 27 -17 19 -19 19
-20 1 -13 -19 7 -19 6 -1 -14 22 -25 26 -25 18 -2 -5 15 -4 15 10 2 8 -8 18
-26 22 -40 7 -23 7 -24 -11 -10 -18 14 -18 14 -5 -3 8 -9 16 -15 19 -12 3 3
12 -1 21 -7 13 -10 14 -10 4 2 -18 19 -16 35 1 21 8 -7 17 -22 20 -34 3 -12
19 -31 36 -42 16 -11 30 -23 30 -27 0 -3 17 -24 38 -45 31 -32 105 -133 147
-202 6 -9 13 -18 16 -21 13 -11 27 -48 43 -108 19 -74 20 -85 6 -77 -6 3 -10
-4 -9 -17 0 -13 3 -17 6 -10 10 24 23 0 23 -44 0 -25 5 -44 11 -44 6 0 9 -7 6
-15 -4 -8 -2 -17 2 -20 8 -4 14 -89 13 -174 -1 -43 12 -29 26 29 16 65 23 326
13 455 -11 130 -36 285 -61 375 -33 119 -61 205 -70 220 -15 23 -12 2 9 -59
10 -31 24 -76 31 -101 7 -25 16 -56 20 -70 22 -66 74 -479 65 -515 -2 -11 -6
-68 -8 -128 -4 -109 -12 -151 -15 -77 -3 72 -70 345 -98 398 -8 15 -14 34 -14
42 0 9 -8 27 -17 40 -10 13 -37 63 -62 110 -24 47 -62 108 -83 136 -21 28 -38
55 -38 61 0 5 -10 18 -22 29 l-22 19 15 -25 c9 -14 22 -36 30 -50 8 -14 20
-29 27 -33 6 -4 12 -13 12 -19 0 -6 6 -19 14 -27 8 -9 28 -43 45 -76 36 -68
48 -89 74 -128 10 -15 17 -33 15 -39 -2 -6 -14 5 -27 25 -12 20 -27 37 -32 37
-5 0 -9 6 -9 14 0 7 -37 56 -82 107 -46 52 -87 100 -93 107 -5 7 -36 39 -69
70 -32 31 -87 93 -122 137 -35 44 -68 85 -74 92 -5 7 -10 15 -10 18 0 13 -44
64 -51 59 -4 -2 -11 1 -15 7 -4 8 -3 9 4 5 19 -11 14 -2 -23 54 -19 29 -57 98
-83 154 -70 146 -93 193 -88 176z m239 -459 c-2 -12 1 -20 6 -16 5 3 12 1 15
-4 6 -10 -19 -9 -29 1 -12 12 -14 49 -2 45 7 -2 11 -14 10 -26z"/>
<path d="M4281 3960 c0 -8 4 -22 9 -30 12 -18 12 -2 0 25 -6 13 -9 15 -9 5z"/>
<path d="M287 3953 c-4 -3 -7 -13 -7 -20 0 -8 -6 -20 -13 -28 -8 -7 -29 -76
-46 -152 -18 -76 -37 -151 -42 -167 -5 -16 -12 -60 -16 -98 -4 -43 -10 -67
-17 -65 -15 5 -20 68 -6 77 9 5 9 13 3 25 -9 16 -11 15 -16 -6 -3 -13 -9 -51
-13 -84 -7 -61 -34 -123 -34 -80 -1 19 -1 19 -11 2 -12 -20 -2 -60 12 -52 5 4
9 -10 9 -30 0 -20 -4 -34 -9 -31 -15 9 -18 -14 -10 -64 25 -142 29 -163 35
-169 3 -3 3 10 0 29 -6 42 -15 154 -9 123 8 -46 18 -21 18 45 -1 73 -10 112
-28 112 -6 0 -2 6 9 14 17 13 20 12 26 -7 4 -16 6 -12 7 17 1 22 3 37 6 34 3
-3 7 -74 10 -157 2 -84 9 -178 15 -209 6 -32 17 -88 25 -127 11 -54 24 -201
25 -279 0 -5 7 -3 15 4 9 8 12 22 9 43 -4 25 -3 28 5 17 8 -12 11 -5 12 30 1
41 1 42 9 17 5 -16 6 -36 3 -44 -4 -9 -2 -14 3 -11 5 3 10 -25 10 -66 l2 -71
-14 45 -13 45 6 -57 c3 -40 2 -58 -6 -58 -6 0 -11 12 -11 28 0 32 -15 59 -24
44 -3 -6 -2 -22 4 -37 5 -14 10 -43 11 -63 l1 -37 13 30 14 30 1 -27 c0 -15 5
-30 10 -33 7 -4 8 8 4 36 -5 30 -4 40 4 35 7 -4 10 -29 9 -61 -2 -30 0 -50 4
-44 4 7 11 -10 17 -37 11 -50 4 -83 -9 -48 -10 26 -11 -32 -2 -106 6 -49 8
-52 14 -25 4 18 7 -9 7 -65 0 -52 5 -144 12 -204 10 -98 8 -167 -7 -220 -3
-12 -1 -16 6 -12 6 4 20 38 31 77 12 38 25 67 31 64 5 -4 9 -10 9 -15 0 -15
57 -93 94 -129 l35 -34 -41 -59 c-23 -33 -57 -75 -75 -94 -18 -20 -33 -38 -33
-42 1 -10 97 96 133 145 32 45 32 45 87 3 19 -15 50 -35 67 -44 64 -33 128
-106 92 -106 -5 0 -7 -4 -4 -10 3 -5 -5 -20 -19 -33 -19 -18 -23 -26 -14 -35
9 -9 7 -12 -10 -12 -12 0 -22 -4 -22 -9 0 -5 -24 -21 -52 -36 -29 -14 -42 -24
-28 -21 24 5 24 4 6 -9 -11 -8 -26 -15 -33 -15 -7 0 -13 -4 -13 -8 0 -5 -23
-19 -50 -31 -28 -12 -50 -27 -50 -32 0 -5 -7 -9 -16 -9 -8 0 -12 -5 -9 -10 3
-6 -5 -14 -19 -20 -14 -5 -26 -12 -26 -15 0 -2 12 0 26 5 14 6 31 10 37 10 16
0 -61 -41 -93 -50 -14 -3 -25 -13 -25 -21 -1 -14 -47 -69 -59 -69 -14 0 15 39
34 45 11 4 17 11 14 17 -4 6 -10 5 -15 -3 -5 -8 -9 -10 -9 -6 0 5 -6 2 -13 -5
-7 -7 -13 -16 -13 -20 1 -4 -8 -14 -19 -23 -14 -10 -15 -13 -4 -9 10 3 19 -1
23 -11 4 -12 -5 -21 -39 -36 -24 -11 -47 -23 -49 -28 -3 -5 -16 -11 -28 -14
-20 -5 -19 -3 7 18 39 32 28 32 -15 0 -19 -14 -30 -25 -26 -25 5 0 3 -7 -4
-15 -7 -8 -17 -15 -22 -15 -6 0 -5 7 2 15 7 8 8 15 2 15 -15 0 -33 -26 -24
-35 4 -5 -1 -5 -11 -2 -23 9 -74 -17 -74 -37 0 -20 -2 -21 70 13 34 16 69 32
77 35 8 4 33 17 55 30 22 14 68 39 103 57 44 22 60 35 53 42 -7 7 -17 5 -30
-7 -11 -10 -25 -16 -32 -14 -14 5 58 56 116 84 20 9 34 19 31 21 -2 2 -18 -3
-36 -12 -18 -9 -34 -15 -36 -12 -2 2 18 16 46 30 l50 26 0 -23 c0 -18 -9 -28
-39 -39 -22 -9 -42 -21 -46 -27 -9 -14 7 -12 30 4 28 19 125 47 125 35 0 -5
-3 -9 -7 -9 -5 0 -13 -11 -19 -24 -10 -21 -9 -23 10 -18 20 4 8 -7 -72 -63
-17 -12 -21 -22 -16 -42 5 -20 4 -24 -6 -18 -9 5 -11 4 -6 -4 4 -6 0 -14 -8
-17 -9 -3 -14 -10 -11 -14 6 -9 -76 -70 -93 -70 -6 0 -12 -7 -15 -15 -5 -12
-2 -12 21 -3 15 7 31 15 37 20 5 4 19 8 31 8 20 0 57 30 38 30 -5 1 1 9 14 19
14 13 18 21 10 23 -7 3 2 13 19 23 18 10 30 22 28 25 -3 4 26 22 63 39 60 29
63 37 7 16 -16 -6 -15 -3 4 11 14 10 52 25 85 34 35 9 60 21 58 28 -1 7 7 12
18 12 11 0 22 1 25 1 43 12 103 17 123 12 24 -6 25 -7 7 -14 -11 -4 -33 -8
-50 -9 -16 0 -43 -7 -60 -15 -16 -8 -21 -13 -10 -10 54 12 132 13 160 1 28
-12 26 -13 -27 -8 -66 5 -102 -3 -78 -18 11 -7 9 -10 -12 -10 -18 0 -31 -8
-39 -22 -10 -19 -9 -20 7 -14 39 15 74 18 74 7 0 -6 8 -11 18 -12 12 0 10 -3
-7 -10 -13 -5 -32 -18 -41 -29 -9 -11 -30 -25 -46 -32 l-29 -12 38 -4 c20 -2
35 -8 32 -13 -4 -5 -11 -7 -16 -4 -5 3 -6 -2 -2 -11 5 -14 2 -16 -20 -12 -15
3 -24 2 -22 -3 5 -7 -19 -15 -80 -24 -85 -14 -96 -17 -93 -27 3 -7 10 -14 18
-16 8 -3 10 0 6 7 -6 8 1 10 21 6 24 -4 25 -4 8 5 -17 9 -16 10 9 6 16 -2 37
0 45 4 26 12 112 33 160 38 41 4 43 3 29 -12 -18 -17 -33 -22 -23 -7 3 6 -7 6
-27 0 -18 -5 -35 -9 -38 -9 -3 0 3 -5 13 -11 9 -6 27 -7 38 -4 14 5 19 3 15
-3 -3 -6 -2 -13 4 -17 6 -4 7 -11 4 -17 -4 -6 -9 -5 -15 3 -4 7 -11 10 -15 6
-17 -17 13 -25 60 -16 56 10 99 44 68 53 -10 3 -7 4 7 3 18 -1 25 -8 26 -24 1
-15 -4 -23 -14 -23 -9 0 -42 -8 -75 -18 -49 -14 -56 -20 -44 -30 12 -10 27 -8
74 7 42 13 53 20 39 24 -19 4 -19 5 2 6 43 2 30 -24 -21 -41 -39 -13 -43 -16
-16 -12 19 3 44 7 55 10 11 2 -2 -7 -30 -20 -27 -13 -43 -25 -35 -25 8 0 26 6
40 14 37 21 43 18 38 -15 -3 -16 -1 -30 4 -30 5 0 8 -12 8 -27 0 -16 5 -82 11
-148 6 -66 8 -174 6 -240 -3 -75 -1 -107 4 -85 19 80 5 411 -26 625 -28 197
-35 292 -30 429 3 76 8 143 11 147 3 5 14 9 25 9 16 0 19 5 14 20 -5 14 -2 20
9 20 9 0 16 4 16 9 0 5 12 12 27 16 15 3 33 15 41 26 13 19 15 18 44 -18 16
-21 35 -41 41 -45 6 -4 9 -10 5 -13 -3 -3 -17 8 -31 25 -14 16 -28 30 -30 30
-8 0 -4 -50 4 -56 5 -3 4 -14 -1 -25 -12 -21 -10 -22 42 -33 33 -7 32 12 -3
45 -14 13 -18 18 -9 12 9 -7 22 -13 28 -13 6 0 17 -9 24 -19 7 -10 54 -56 103
-100 129 -117 133 -122 152 -161 9 -19 18 -29 21 -22 2 7 -2 19 -8 27 -17 20
-1 19 22 -2 10 -9 20 -14 23 -11 3 2 -16 19 -41 38 -62 44 -306 287 -329 328
-11 17 -23 32 -27 32 -4 0 -8 5 -8 12 0 6 -6 19 -14 27 -7 9 -28 43 -45 76
-32 58 -51 86 -51 72 0 -3 22 -44 49 -91 l49 -86 -28 -24 c-16 -13 -45 -27
-65 -30 -63 -12 -112 5 -235 85 -30 19 -80 49 -110 66 -136 74 -224 147 -273
225 -31 50 -74 193 -86 293 -24 180 17 322 101 354 17 6 30 6 33 0 4 -5 10 -7
14 -4 5 2 11 -10 15 -28 3 -17 14 -46 23 -64 20 -37 14 -49 -15 -34 -30 16
-67 13 -90 -6 -35 -30 -69 -211 -43 -227 4 -3 11 32 14 77 6 72 10 85 32 105
14 12 39 22 54 22 36 0 95 -40 99 -66 3 -18 -3 -21 -38 -22 -47 -2 -95 -24
-104 -47 -9 -24 -8 -24 19 -12 14 7 25 14 25 17 0 3 22 3 50 2 41 -3 54 -9 75
-34 14 -16 25 -35 25 -42 0 -17 -29 -55 -30 -38 0 8 -13 0 -30 -17 -17 -16
-40 -32 -53 -34 -20 -4 -20 -4 3 -6 31 -1 98 32 127 65 21 23 23 24 33 5 14
-27 13 -51 -3 -51 -22 0 -76 -54 -87 -87 -8 -21 -7 -38 1 -59 7 -16 11 -33 10
-37 -2 -10 25 -37 37 -37 6 0 15 -13 21 -30 5 -17 15 -30 22 -30 8 0 8 4 -1
15 -7 8 -10 22 -6 30 3 8 1 15 -4 15 -6 0 -10 10 -10 23 0 28 -15 51 -28 43
-6 -4 -8 2 -5 14 3 11 9 23 14 26 5 3 9 10 9 15 0 6 -5 7 -11 3 -7 -4 -10 1
-7 11 1 10 8 20 14 22 16 5 44 -25 39 -40 -6 -16 16 -77 40 -110 18 -24 23
-26 53 -18 18 6 39 8 45 5 15 -5 37 -51 37 -76 0 -11 5 -15 14 -12 7 3 16 -2
20 -12 5 -14 2 -15 -21 -10 -16 4 -60 13 -99 20 -40 7 -89 23 -109 35 -46 27
-55 22 -15 -7 19 -14 69 -30 132 -43 101 -21 181 -49 193 -69 3 -5 10 -10 16
-10 5 0 -7 21 -26 46 -19 25 -35 53 -35 62 0 9 -6 27 -13 38 -35 60 -35 65 0
24 65 -76 93 -103 100 -97 3 4 2 12 -3 20 -5 7 0 4 10 -8 22 -23 22 -24 -27
74 -20 41 -35 77 -32 79 5 5 120 -112 142 -144 8 -13 22 -24 29 -24 12 0 12 6
-1 36 -19 46 -19 50 2 33 15 -13 15 -12 4 9 -7 12 -15 20 -19 18 -5 -3 -9 5
-9 16 -1 12 -7 24 -12 27 -6 4 -17 22 -26 41 -8 19 -19 42 -24 50 -15 24 -77
150 -105 210 -17 38 -76 200 -107 295 -47 144 -58 182 -64 220 -4 22 -13 63
-21 90 -8 28 -23 95 -33 150 -18 95 -19 97 -20 45 -1 -57 3 -75 39 -200 12
-41 27 -104 35 -140 7 -36 18 -78 23 -95 6 -16 24 -68 41 -115 17 -47 35 -107
41 -135 6 -27 15 -57 20 -66 5 -9 14 -36 20 -59 6 -24 27 -76 46 -116 19 -40
34 -75 34 -78 0 -3 16 -33 36 -66 20 -34 34 -64 31 -66 -3 -3 -10 1 -16 8 -6
7 -30 36 -55 63 -74 84 -215 283 -262 370 -6 11 -15 29 -22 40 -41 75 -101
235 -138 369 -25 91 -69 423 -61 464 2 12 0 25 -6 29 -26 16 33 -472 73 -597
28 -88 31 -97 43 -157 6 -29 15 -53 19 -53 4 0 8 -12 8 -26 0 -14 4 -23 9 -20
4 3 6 -6 3 -19 -2 -15 0 -25 7 -25 6 0 11 -6 11 -14 0 -7 8 -24 18 -37 11 -13
22 -35 26 -49 3 -14 18 -38 32 -55 18 -21 24 -24 19 -10 -4 11 -8 27 -9 35 -1
8 -10 27 -19 41 -16 23 -43 98 -32 88 9 -10 55 -80 55 -85 0 -3 8 -18 18 -32
10 -15 27 -49 37 -77 10 -27 30 -72 45 -100 26 -48 67 -121 77 -139 3 -4 10
-2 15 5 7 10 8 8 5 -8 -3 -12 2 -31 10 -43 8 -12 13 -23 10 -26 -2 -3 -29 26
-58 63 -29 37 -76 92 -104 121 -27 29 -54 58 -60 65 -39 48 -70 96 -101 154
-20 37 -51 96 -69 129 -32 60 -65 146 -99 267 -28 95 -56 358 -58 546 l-2 176
-3 -157 c-2 -87 -7 -158 -12 -158 -11 0 -21 -40 -27 -105 -4 -48 26 -192 38
-180 3 3 4 -6 3 -20 -2 -14 1 -25 6 -25 6 0 7 -5 4 -10 -4 -6 1 -24 9 -42 19
-36 20 -41 6 -33 -14 9 -12 -8 3 -24 10 -11 9 -13 -1 -9 -38 11 -101 294 -136
608 -2 19 -2 -11 0 -67 4 -107 25 -253 50 -340 8 -28 13 -60 12 -70 -4 -32 14
-113 23 -107 5 3 12 -1 14 -9 3 -7 -10 -31 -29 -52 -25 -27 -37 -34 -40 -24
-46 148 -82 622 -57 765 7 38 16 98 22 134 5 36 21 99 35 140 14 41 28 86 30
100 11 52 -16 -5 -47 -100 -58 -176 -89 -310 -118 -505 l-7 -50 -19 95 c-29
143 -28 454 1 605 30 154 52 240 81 313 23 59 26 82 10 65z m-130 -565 c-3 -8
-6 -5 -6 6 -1 11 2 17 5 13 3 -3 4 -12 1 -19z m273 -539 c0 -5 -4 -9 -10 -9
-5 0 -10 7 -10 16 0 8 5 12 10 9 6 -3 10 -10 10 -16z m-13 -71 c-3 -8 -6 -5
-6 6 -1 11 2 17 5 13 3 -3 4 -12 1 -19z m-180 -45 c-3 -10 -5 -4 -5 12 0 17 2
24 5 18 2 -7 2 -21 0 -30z m194 -27 c5 -6 9 -19 9 -30 -1 -16 -5 -12 -15 13
-8 18 -14 43 -14 55 2 18 2 17 6 -4 3 -14 9 -29 14 -34z m-114 -478 c-3 -8 -6
-5 -6 6 -1 11 2 17 5 13 3 -3 4 -12 1 -19z m438 -293 c7 -5 34 -37 61 -69 33
-40 42 -57 29 -52 -11 4 -33 10 -49 13 -15 3 -46 23 -67 43 -40 38 -47 64 -32
118 6 23 6 23 27 -10 11 -18 25 -37 31 -43z m204 -145 c0 -11 -3 -10 -14 4 -8
11 -15 27 -15 35 0 11 4 10 15 -5 8 -10 14 -26 14 -34z m-309 26 c0 -3 -4 -8
-10 -11 -5 -3 -10 -1 -10 4 0 6 5 11 10 11 6 0 10 -2 10 -4z m338 -91 c-3 -3
-9 2 -12 12 -6 14 -5 15 5 6 7 -7 10 -15 7 -18z m-105 -381 c-4 -11 -9 -12
-19 -3 -10 8 -16 6 -26 -10 -9 -15 -22 -21 -48 -20 -23 1 -27 3 -12 6 20 4 27
14 23 37 -1 5 9 6 23 4 14 -3 30 -1 37 3 18 10 29 2 22 -17z m-193 -58 c0 -2
-7 -6 -15 -10 -8 -3 -15 -1 -15 4 0 6 7 10 15 10 8 0 15 -2 15 -4z m140 -6
c-8 -5 -19 -10 -25 -10 -5 0 -3 5 5 10 8 5 20 10 25 10 6 0 3 -5 -5 -10z
m-190 -15 c0 -2 -15 -12 -32 -20 l-33 -16 25 20 c24 20 40 26 40 16z m247 -19
c-2 -6 -25 -10 -53 -10 -27 0 -52 -4 -55 -9 -4 -6 -14 -5 -25 2 -18 10 -18 10
3 11 12 0 24 4 27 8 8 13 107 11 103 -2z m-9 -52 c-2 -1 -28 1 -58 5 -51 7
-53 15 -5 23 18 4 70 -20 63 -28z m-259 22 c-2 -2 -15 -9 -29 -16 -23 -12 -24
-12 -11 3 7 10 20 17 29 17 8 0 13 -2 11 -4z m126 -6 c-3 -5 12 -13 35 -16 49
-8 42 -17 -24 -33 -57 -14 -73 -7 -26 12 24 11 28 16 16 20 -16 7 -72 -9 -94
-26 -9 -7 -16 -7 -24 1 -8 8 -4 14 16 22 15 5 35 10 44 10 9 0 24 5 32 10 19
13 33 13 25 0z m176 0 c25 -14 25 -30 -1 -23 -24 6 -49 33 -31 33 7 0 21 -5
32 -10z m-429 -32 c-6 -6 -15 -8 -19 -4 -4 4 -1 11 7 16 19 12 27 3 12 -12z
m88 -3 c0 -2 -10 -9 -22 -15 -22 -11 -22 -10 -4 4 21 17 26 19 26 11z m340
-10 c0 -8 -9 -15 -20 -15 -17 0 -19 2 -8 15 17 19 28 19 28 0z m-295 -5 c6
-10 -53 -38 -100 -47 -24 -4 -18 1 25 25 63 34 67 35 75 22z m-95 -14 c0 -2
-7 -6 -15 -10 -8 -3 -15 -1 -15 4 0 6 7 10 15 10 8 0 15 -2 15 -4z m156 -5
c-3 -5 -18 -11 -33 -14 -26 -5 -26 -4 -8 9 21 15 49 19 41 5z m264 -6 c0 -8
-2 -15 -4 -15 -2 0 -6 7 -10 15 -3 8 -1 15 4 15 6 0 10 -7 10 -15z m-85 -5
c-3 -5 -14 -10 -23 -9 -14 0 -13 2 3 9 27 11 27 11 20 0z m-184 -21 c-24 -11
-46 -17 -49 -14 -6 6 58 34 78 34 8 0 -5 -9 -29 -20z m-81 -19 c0 -5 -5 -10
-11 -10 -5 0 -7 5 -4 10 3 6 8 10 11 10 2 0 4 -4 4 -10z m350 -26 c0 -11 -4
-12 -19 -2 -10 6 -17 18 -14 25 7 17 33 -2 33 -23z m-380 12 c0 -2 -7 -7 -16
-10 -8 -3 -12 -2 -9 4 6 10 25 14 25 6z m130 -5 c0 -9 -52 -22 -59 -15 -4 3
37 22 52 23 4 1 7 -3 7 -8z m236 -66 c10 -8 14 -15 7 -15 -19 0 -43 11 -43 21
0 13 14 11 36 -6z m-53 -2 c-7 -2 -21 -2 -30 0 -10 3 -4 5 12 5 17 0 24 -2 18
-5z m-388 -23 c-3 -5 -12 -10 -18 -10 -7 0 -6 4 3 10 19 12 23 12 15 0z m464
-42 c0 -16 -2 -18 -6 -8 -3 8 -11 18 -17 22 -7 5 -4 8 7 8 11 0 17 -7 16 -22z
m-104 -58 c-3 -6 4 -10 16 -10 12 0 20 -3 16 -6 -3 -4 -18 -3 -34 0 -21 6 -24
9 -12 17 18 11 22 11 14 -1z m112 4 c-3 -3 -12 -4 -19 -1 -8 3 -5 6 6 6 11 1
17 -2 13 -5z m-897 -8 c0 -2 -7 -7 -16 -10 -8 -3 -12 -2 -9 4 6 10 25 14 25 6z
m853 -103 c-7 -2 -19 -2 -25 0 -7 3 -2 5 12 5 14 0 19 -2 13 -5z m-18 -53
c-28 -12 -37 -12 -30 0 3 6 16 10 28 9 21 0 21 -1 2 -9z"/>
<path d="M3760 3856 c43 -108 59 -139 60 -116 0 9 -6 24 -13 35 -7 11 -26 53
-41 92 -15 40 -31 75 -36 78 -4 2 9 -37 30 -89z"/>
<path d="M2260 3921 c0 -5 5 -13 10 -16 6 -3 10 -2 10 4 0 5 -4 13 -10 16 -5
3 -10 2 -10 -4z"/>
<path d="M2280 3886 c0 -5 15 -41 34 -80 83 -176 147 -332 200 -481 10 -27 27
-75 38 -105 11 -30 30 -98 43 -150 13 -52 29 -108 35 -125 15 -39 47 -185 65
-299 8 -49 21 -110 29 -135 23 -73 30 -115 17 -107 -6 4 -11 11 -11 15 0 17
-108 171 -176 252 -99 117 -127 147 -116 124 6 -11 33 -45 61 -75 60 -65 57
-59 81 -203 29 -179 107 -480 118 -449 1 5 -4 37 -13 69 -14 51 -32 157 -38
233 -1 14 -6 31 -11 39 -6 10 -6 12 2 7 7 -4 12 -1 12 6 0 7 9 -4 20 -25 23
-42 25 -51 8 -41 -7 5 -8 2 -3 -7 20 -34 28 -40 36 -28 4 8 12 -4 19 -30 6
-24 14 -41 16 -38 5 4 -3 42 -23 112 -4 16 -1 15 16 -7 11 -14 21 -32 21 -39
0 -8 3 -9 9 -4 6 6 6 38 -1 85 -5 41 -10 83 -10 93 1 9 -3 17 -9 17 -5 0 -9 8
-9 17 0 12 8 6 23 -17 34 -50 87 -153 87 -168 0 -7 6 -23 14 -35 8 -12 22 -62
31 -112 19 -103 31 -127 21 -44 -14 111 -63 243 -182 484 -19 39 -39 99 -45
135 -6 36 -15 74 -19 85 -6 17 -17 56 -37 140 -3 11 4 5 17 -14 12 -19 22 -49
23 -68 1 -18 5 -33 10 -33 4 0 7 -5 7 -10 0 -6 9 -20 20 -32 35 -38 30 -21
-68 252 -28 78 -97 243 -120 287 -49 92 -92 188 -92 202 0 9 -4 21 -9 26 -4 6
-32 64 -61 130 -51 115 -80 169 -80 151z m337 -818 c-3 -8 -6 -5 -6 6 -1 11 2
17 5 13 3 -3 4 -12 1 -19z m29 -45 c-7 -7 -26 7 -26 19 0 6 6 6 15 -2 9 -7 13
-15 11 -17z m64 -158 c0 -5 -5 -3 -10 5 -5 8 -10 20 -10 25 0 6 5 3 10 -5 5
-8 10 -19 10 -25z"/>
<path d="M4065 3870 c10 -42 83 -403 88 -435 3 -20 4 -15 6 18 0 27 -6 76 -14
110 -8 34 -26 116 -41 182 -14 66 -31 127 -36 135 -7 11 -8 8 -3 -10z"/>
<path d="M4295 3869 c8 -26 45 -77 45 -63 -1 24 -13 53 -21 48 -5 -3 -9 2 -9
10 0 8 -5 18 -11 22 -8 4 -9 -1 -4 -17z"/>
<path d="M81 3844 c0 -11 3 -14 6 -6 3 7 2 16 -1 19 -3 4 -6 -2 -5 -13z"/>
<path d="M1058 3835 c-3 -14 -1 -25 3 -25 5 0 9 11 9 25 0 14 -2 25 -4 25 -2
0 -6 -11 -8 -25z"/>
<path d="M4246 3845 c-9 -26 -7 -32 5 -12 6 10 9 21 6 23 -2 3 -7 -2 -11 -11z"/>
<path d="M1801 3820 c0 -8 6 -26 15 -40 l15 -25 -7 25 c-3 14 -10 32 -15 40
-7 13 -8 13 -8 0z"/>
<path d="M4392 3805 c0 -16 2 -22 5 -12 2 9 2 23 0 30 -3 6 -5 -1 -5 -18z"/>
<path d="M486 3795 c-9 -26 -7 -32 5 -12 6 10 9 21 6 23 -2 3 -7 -2 -11 -11z"/>
<path d="M825 3735 c-3 -26 -4 -49 -2 -51 3 -3 8 16 12 41 3 26 4 49 2 51 -3
3 -8 -16 -12 -41z"/>
<path d="M1125 3770 c-3 -5 -1 -10 4 -10 6 0 11 5 11 10 0 6 -2 10 -4 10 -3 0
-8 -4 -11 -10z"/>
<path d="M4406 3730 c3 -25 9 -65 14 -90 l7 -45 1 40 c1 22 -6 63 -14 90 l-14
50 6 -45z"/>
<path d="M1831 3742 c-1 -7 3 -20 9 -30 5 -9 21 -44 36 -77 25 -54 83 -155 90
-155 8 0 -17 65 -31 80 -9 10 -36 57 -60 106 -24 49 -44 83 -44 76z"/>
<path d="M4271 3734 c0 -11 3 -14 6 -6 3 7 2 16 -1 19 -3 4 -6 -2 -5 -13z"/>
<path d="M4361 3734 c0 -11 3 -14 6 -6 3 7 2 16 -1 19 -3 4 -6 -2 -5 -13z"/>
<path d="M452 3715 c-17 -37 -14 -45 4 -12 9 16 14 31 11 33 -2 2 -9 -7 -15
-21z"/>
<path d="M3821 3713 c-1 -17 40 -125 45 -120 3 2 -6 33 -20 68 -14 35 -25 59
-25 52z"/>
<path d="M26 3615 c-10 -50 -16 -108 -13 -130 4 -39 4 -39 5 8 1 26 9 79 18
118 9 38 14 75 12 81 -3 7 -12 -28 -22 -77z"/>
<path d="M3230 3696 c0 -2 8 -10 18 -17 15 -13 16 -12 3 4 -13 16 -21 21 -21
13z"/>
<path d="M151 3664 c0 -11 3 -14 6 -6 3 7 2 16 -1 19 -3 4 -6 -2 -5 -13z"/>
<path d="M556 3644 c-4 -14 -5 -28 -3 -31 3 -2 8 8 11 23 4 14 5 28 3 31 -3 2
-8 -8 -11 -23z"/>
<path d="M4360 3658 c0 -9 5 -20 10 -23 13 -8 13 5 0 25 -8 13 -10 13 -10 -2z"/>
<path d="M812 3635 c0 -16 2 -22 5 -12 2 9 2 23 0 30 -3 6 -5 -1 -5 -18z"/>
<path d="M405 3607 c-21 -51 -18 -59 6 -14 11 22 18 41 15 44 -3 4 -13 -10
-21 -30z"/>
<path d="M3277 3620 c3 -11 9 -22 13 -25 5 -3 6 4 3 15 -3 11 -9 22 -13 25 -5
3 -6 -4 -3 -15z"/>
<path d="M141 3594 c0 -11 3 -14 6 -6 3 7 2 16 -1 19 -3 4 -6 -2 -5 -13z"/>
<path d="M2237 3589 c4 -13 8 -18 11 -10 2 7 -1 18 -6 23 -8 8 -9 4 -5 -13z"/>
<path d="M1122 3580 c0 -14 2 -19 5 -12 2 6 2 18 0 25 -3 6 -5 1 -5 -13z"/>
<path d="M3317 3548 c47 -100 57 -117 60 -114 6 5 -57 135 -67 141 -5 3 -2 -9
7 -27z"/>
<path d="M3870 3569 c0 -7 9 -37 19 -68 28 -82 49 -166 63 -251 6 -41 14 -66
16 -56 2 11 -1 45 -7 75 -7 31 -17 79 -22 106 -12 57 -59 205 -65 205 -2 0 -4
-5 -4 -11z"/>
<path d="M4433 3500 c0 -47 2 -66 4 -42 2 23 2 61 0 85 -2 23 -4 4 -4 -43z"/>
<path d="M3577 3552 c3 -12 9 -25 14 -28 14 -8 11 10 -6 32 -13 18 -14 18 -8
-4z"/>
<path d="M521 3480 c-7 -47 -11 -94 -8 -105 3 -13 5 -9 6 13 0 18 6 52 12 76
6 24 9 56 7 72 -2 18 -8 -4 -17 -56z"/>
<path d="M2255 3550 c3 -5 8 -10 11 -10 2 0 4 5 4 10 0 6 -5 10 -11 10 -5 0
-7 -4 -4 -10z"/>
<path d="M3240 3541 c0 -6 4 -13 10 -16 6 -3 7 1 4 9 -7 18 -14 21 -14 7z"/>
<path d="M2358 3515 c2 -14 8 -28 13 -31 10 -6 11 2 3 34 -9 30 -22 28 -16 -3z"/>
<path d="M2320 3510 c0 -5 5 -10 11 -10 5 0 7 5 4 10 -3 6 -8 10 -11 10 -2 0
-4 -4 -4 -10z"/>
<path d="M4362 3480 c0 -19 2 -27 5 -17 2 9 2 25 0 35 -3 9 -5 1 -5 -18z"/>
<path d="M3931 3484 c0 -11 3 -14 6 -6 3 7 2 16 -1 19 -3 4 -6 -2 -5 -13z"/>
<path d="M4381 3470 c0 -19 4 -42 9 -50 8 -12 10 -11 9 5 -1 11 -5 34 -9 50
l-8 30 -1 -35z"/>
<path d="M3273 3475 c0 -8 4 -15 9 -15 4 0 8 4 8 9 0 6 -4 12 -8 15 -5 3 -9
-1 -9 -9z"/>
<path d="M3963 3455 c0 -22 2 -30 4 -17 2 12 2 30 0 40 -3 9 -5 -1 -4 -23z"/>
<path d="M3610 3471 c0 -6 4 -13 10 -16 6 -3 7 1 4 9 -7 18 -14 21 -14 7z"/>
<path d="M1970 3464 c0 -6 9 -23 20 -37 11 -14 20 -28 20 -30 0 -12 64 -107
72 -107 4 0 -8 22 -27 50 -19 27 -35 52 -35 55 0 4 -11 23 -25 43 -14 20 -25
32 -25 26z"/>
<path d="M3981 3454 c0 -11 3 -14 6 -6 3 7 2 16 -1 19 -3 4 -6 -2 -5 -13z"/>
<path d="M4 3285 c0 -88 2 -123 3 -77 2 46 2 118 0 160 -1 42 -3 5 -3 -83z"/>
<path d="M74 3426 c-8 -22 -2 -27 16 -16 12 7 12 12 3 21 -10 10 -14 9 -19 -5z"/>
<path d="M802 3420 c0 -14 2 -19 5 -12 2 6 2 18 0 25 -3 6 -5 1 -5 -13z"/>
<path d="M2320 3430 c0 -5 5 -10 11 -10 5 0 7 5 4 10 -3 6 -8 10 -11 10 -2 0
-4 -4 -4 -10z"/>
<path d="M2865 3406 c10 -14 19 -26 22 -26 7 0 -17 39 -28 46 -6 3 -3 -5 6
-20z"/>
<path d="M4361 3398 c-1 -25 4 -40 15 -46 11 -6 13 -11 5 -16 -13 -9 -15 -56
-2 -56 5 0 12 -10 14 -22 2 -13 5 15 5 62 0 53 -2 78 -8 65 -8 -21 -13 -15
-23 30 -3 11 -5 3 -6 -17z"/>
<path d="M3992 3385 c0 -16 2 -22 5 -12 2 9 2 23 0 30 -3 6 -5 -1 -5 -18z"/>
<path d="M4440 3230 c0 -95 3 -171 6 -167 7 6 5 329 -1 336 -3 2 -5 -74 -5
-169z"/>
<path d="M3855 3380 c3 -5 8 -10 11 -10 2 0 4 5 4 10 0 6 -5 10 -11 10 -5 0
-7 -4 -4 -10z"/>
<path d="M4107 3305 c5 -44 8 -165 8 -270 -1 -184 -10 -274 -41 -395 -16 -64
-17 -82 -3 -57 6 9 20 63 31 120 19 89 21 137 22 372 0 192 -4 276 -12 290
-10 16 -11 4 -5 -60z"/>
<path d="M2386 3357 c3 -10 9 -15 12 -12 3 3 0 11 -7 18 -10 9 -11 8 -5 -6z"/>
<path d="M2870 3361 c0 -6 4 -13 10 -16 6 -3 7 1 4 9 -7 18 -14 21 -14 7z"/>
<path d="M3871 3350 c0 -8 7 -31 15 -50 l14 -35 -6 35 c-7 40 -24 76 -23 50z"/>
<path d="M2879 3313 c28 -41 40 -49 38 -24 -1 11 -3 18 -6 15 -2 -2 -16 6 -30
18 l-25 23 23 -32z"/>
<path d="M3116 3315 c4 -8 11 -15 16 -15 6 0 5 6 -2 15 -7 8 -14 15 -16 15 -2
0 -1 -7 2 -15z"/>
<path d="M503 3270 c0 -25 2 -35 4 -22 2 12 2 32 0 45 -2 12 -4 2 -4 -23z"/>
<path d="M2856 3287 c3 -10 9 -15 12 -12 3 3 0 11 -7 18 -10 9 -11 8 -5 -6z"/>
<path d="M3760 3291 c0 -5 5 -13 10 -16 6 -3 10 -2 10 4 0 5 -4 13 -10 16 -5
3 -10 2 -10 -4z"/>
<path d="M4001 3284 c0 -11 3 -14 6 -6 3 7 2 16 -1 19 -3 4 -6 -2 -5 -13z"/>
<path d="M3640 3271 c0 -6 4 -13 10 -16 6 -3 7 1 4 9 -7 18 -14 21 -14 7z"/>
<path d="M2930 3261 c0 -6 4 -13 10 -16 6 -3 7 1 4 9 -7 18 -14 21 -14 7z"/>
<path d="M3605 3231 c3 -24 12 -55 20 -70 l15 -26 -6 28 c-4 16 -13 47 -20 70
l-14 42 5 -44z"/>
<path d="M2126 3223 c36 -53 41 -55 14 -5 -13 23 -27 42 -32 42 -4 0 4 -17 18
-37z"/>
<path d="M2871 3250 c0 -14 28 -72 29 -59 0 4 -7 22 -15 40 -8 19 -14 27 -14
19z"/>
<path d="M822 3210 c0 -14 2 -19 5 -12 2 6 2 18 0 25 -3 6 -5 1 -5 -13z"/>
<path d="M990 3216 c0 -8 5 -18 10 -21 6 -3 10 1 10 9 0 8 -4 18 -10 21 -5 3
-10 -1 -10 -9z"/>
<path d="M3766 3217 c3 -10 9 -15 12 -12 3 3 0 11 -7 18 -10 9 -11 8 -5 -6z"/>
<path d="M3790 3224 c0 -7 7 -27 15 -45 8 -19 14 -29 15 -23 0 7 -7 27 -15 45
-8 19 -14 29 -15 23z"/>
<path d="M3010 3210 c0 -5 5 -10 11 -10 5 0 7 5 4 10 -3 6 -8 10 -11 10 -2 0
-4 -4 -4 -10z"/>
<path d="M503 3160 c0 -25 2 -35 4 -22 2 12 2 32 0 45 -2 12 -4 2 -4 -23z"/>
<path d="M4392 3160 c0 -19 2 -27 5 -17 2 9 2 25 0 35 -3 9 -5 1 -5 -18z"/>
<path d="M832 3160 c0 -14 2 -19 5 -12 2 6 2 18 0 25 -3 6 -5 1 -5 -13z"/>
<path d="M1010 3168 c0 -7 5 -20 10 -28 8 -12 10 -11 10 7 0 12 -4 25 -10 28
-5 3 -10 0 -10 -7z"/>
<path d="M2895 3171 c-3 -6 -2 -11 3 -11 5 0 9 -6 9 -12 0 -7 8 -29 17 -48
l17 -35 -5 33 c-4 24 -2 31 7 26 7 -4 8 -3 4 2 -5 5 -13 9 -19 9 -6 0 -12 8
-14 18 -3 24 -10 31 -19 18z"/>
<path d="M931 3153 c0 -5 7 -24 15 -43 l14 -35 -5 34 c-3 18 -5 37 -5 42 0 5
-4 9 -10 9 -5 0 -10 -3 -9 -7z"/>
<path d="M3796 3144 c1 -6 12 -44 24 -85 17 -55 24 -69 31 -57 11 19 1 51 -12
42 -6 -3 -7 5 -3 20 4 17 2 26 -6 26 -6 0 -8 5 -5 10 3 6 2 10 -2 10 -5 0 -14
10 -19 23 -6 12 -9 17 -8 11z"/>
<path d="M2170 3146 c0 -2 8 -10 18 -17 15 -13 16 -12 3 4 -13 16 -21 21 -21
13z"/>
<path d="M841 3094 c0 -11 3 -14 6 -6 3 7 2 16 -1 19 -3 4 -6 -2 -5 -13z"/>
<path d="M4392 3085 c0 -16 2 -22 5 -12 2 9 2 23 0 30 -3 6 -5 -1 -5 -18z"/>
<path d="M2210 3086 c0 -2 8 -10 18 -17 15 -13 16 -12 3 4 -13 16 -21 21 -21
13z"/>
<path d="M3380 3070 c0 -5 5 -10 11 -10 5 0 7 5 4 10 -3 6 -8 10 -11 10 -2 0
-4 -4 -4 -10z"/>
<path d="M851 3055 c0 -21 27 -88 28 -70 0 6 -6 28 -14 50 -8 22 -14 31 -14
20z"/>
<path d="M3190 3066 c0 -2 8 -10 18 -17 15 -13 16 -12 3 4 -13 16 -21 21 -21
13z"/>
<path d="M967 3027 c3 -21 12 -57 19 -80 l14 -42 -6 60 c-4 33 -10 62 -14 65
-4 3 -10 12 -13 20 -4 8 -4 -2 0 -23z"/>
<path d="M1022 3030 c0 -14 2 -19 5 -12 2 6 2 18 0 25 -3 6 -5 1 -5 -13z"/>
<path d="M2240 3046 c0 -2 8 -10 18 -17 15 -13 16 -12 3 4 -13 16 -21 21 -21
13z"/>
<path d="M3790 3045 c0 -6 6 -22 14 -37 13 -25 25 -80 26 -122 0 -14 3 -17 11
-9 7 7 5 29 -6 74 -15 56 -45 120 -45 94z"/>
<path d="M4445 3038 c-2 -7 0 -38 4 -68 l9 -55 1 68 c1 63 -4 83 -14 55z"/>
<path d="M693 2995 c0 -27 2 -38 4 -22 2 15 2 37 0 50 -2 12 -4 0 -4 -28z"/>
<path d="M3096 3017 c3 -10 9 -15 12 -12 3 3 0 11 -7 18 -10 9 -11 8 -5 -6z"/>
<path d="M409 3003 c-6 -34 -5 -54 2 -59 5 -3 9 11 9 30 0 31 -8 50 -11 29z"/>
<path d="M1043 2993 c-18 -7 -16 -23 2 -23 8 0 15 7 15 15 0 8 -1 15 -2 14 -2
0 -9 -3 -15 -6z"/>
<path d="M891 2940 c0 -8 6 -26 14 -40 8 -14 14 -19 14 -10 0 8 -6 26 -14 40
-8 14 -14 19 -14 10z"/>
<path d="M2851 2935 c0 -5 6 -21 14 -35 8 -14 14 -20 14 -15 0 6 -6 21 -14 35
-8 14 -14 21 -14 15z"/>
<path d="M2936 2907 c3 -10 9 -15 12 -12 3 3 0 11 -7 18 -10 9 -11 8 -5 -6z"/>
<path d="M2970 2900 c6 -11 13 -20 16 -20 2 0 0 9 -6 20 -6 11 -13 20 -16 20
-2 0 0 -9 6 -20z"/>
<path d="M148 2865 c-2 -3 -3 -59 0 -126 3 -85 1 -119 -7 -115 -8 5 -10 -38
-9 -146 2 -133 4 -144 11 -88 4 36 12 79 17 95 l8 30 1 -33 c1 -33 57 -261 66
-271 9 -8 5 27 -6 55 -30 81 -59 276 -65 434 -5 162 -6 175 -16 165z"/>
<path d="M2957 2843 c7 -20 33 -60 33 -52 0 9 -31 69 -35 69 -3 0 -2 -8 2 -17z"/>
<path d="M1101 2824 c0 -11 3 -14 6 -6 3 7 2 16 -1 19 -3 4 -6 -2 -5 -13z"/>
<path d="M2891 2825 c-1 -11 8 -38 17 -60 10 -22 24 -67 30 -100 15 -76 42
-352 37 -385 -36 -255 -40 -274 -46 -245 -5 24 -7 20 -8 -22 -1 -62 14 -70 24
-13 4 22 11 42 16 46 5 3 9 14 9 25 0 10 5 19 10 19 6 0 10 -19 10 -42 0 -23
3 -38 6 -35 4 4 6 38 5 77 -1 43 2 70 9 70 5 0 10 9 10 20 0 11 -4 20 -9 20
-13 0 -12 133 2 142 9 6 8 8 -3 8 -12 0 -12 2 -2 9 19 12 25 151 6 151 -8 0
-14 5 -14 11 0 5 5 7 10 4 6 -3 10 -1 10 4 0 6 -4 11 -9 11 -5 0 -11 9 -14 20
-3 11 -1 18 3 15 5 -3 8 4 7 15 -1 13 -5 16 -11 10 -13 -13 -26 -13 -26 1 0 5
5 7 10 4 6 -3 10 -1 10 5 0 6 -6 13 -14 16 -8 3 -12 12 -9 20 3 8 1 14 -4 14
-5 0 -17 30 -27 68 -20 77 -45 131 -45 97z m126 -357 c-3 -7 -5 -2 -5 12 0 14
2 19 5 13 2 -7 2 -19 0 -25z m-10 -70 c-3 -7 -5 -2 -5 12 0 14 2 19 5 13 2 -7
2 -19 0 -25z"/>
<path d="M3000 2831 c0 -6 4 -13 10 -16 6 -3 7 1 4 9 -7 18 -14 21 -14 7z"/>
<path d="M1072 2803 c2 -18 1 -30 -4 -27 -4 3 -8 12 -8 20 0 8 -5 12 -11 9 -7
-5 -3 -15 10 -29 11 -12 22 -31 24 -41 1 -11 8 -29 15 -40 11 -20 11 -20 12 2
0 12 -5 34 -11 50 -6 15 -13 39 -16 53 -7 37 -16 40 -11 3z"/>
<path d="M3376 2798 c3 -13 12 -36 19 -53 12 -27 13 -28 14 -7 1 23 -24 82
-35 82 -3 0 -2 -10 2 -22z"/>
<path d="M2718 2796 c-22 -16 -23 -30 -3 -22 12 4 21 -6 35 -37 10 -23 19 -38
19 -34 1 8 -30 107 -33 107 0 0 -9 -7 -18 -14z"/>
<path d="M3831 2784 c0 -11 3 -14 6 -6 3 7 2 16 -1 19 -3 4 -6 -2 -5 -13z"/>
<path d="M2960 2781 c0 -6 4 -13 10 -16 6 -3 7 1 4 9 -7 18 -14 21 -14 7z"/>
<path d="M2030 2754 c0 -13 55 -49 77 -50 24 -1 31 10 13 21 -5 3 -10 1 -10
-6 0 -9 -5 -8 -17 2 -26 21 -63 40 -63 33z"/>
<path d="M2305 2744 c-14 -11 -34 -14 -63 -11 -48 5 -45 -7 3 -17 23 -5 37 0
60 19 33 26 33 34 0 9z"/>
<path d="M3812 2740 c0 -14 2 -19 5 -12 2 6 2 18 0 25 -3 6 -5 1 -5 -13z"/>
<path d="M700 2750 c1 -3 8 -27 16 -55 l14 -50 -5 45 c-3 25 -10 49 -16 55 -5
5 -9 7 -9 5z"/>
<path d="M2977 2735 c-4 -8 -3 -16 1 -19 4 -3 9 4 9 15 2 23 -3 25 -10 4z"/>
<path d="M1121 2724 c0 -11 3 -14 6 -6 3 7 2 16 -1 19 -3 4 -6 -2 -5 -13z"/>
<path d="M331 2705 c-2 -46 18 -155 34 -184 8 -14 14 -20 15 -13 0 7 -5 23
-11 34 -6 12 -11 50 -10 85 1 35 -3 63 -8 63 -5 0 -12 10 -14 23 -3 17 -5 15
-6 -8z"/>
<path d="M2293 2707 c-31 -16 -43 -28 -43 -44 0 -13 -12 -31 -31 -43 -36 -27
-32 -39 6 -14 21 13 40 16 98 11 l72 -5 -63 19 c-70 22 -71 30 -12 74 41 30
30 31 -27 2z"/>
<path d="M3021 2714 c0 -11 3 -14 6 -6 3 7 2 16 -1 19 -3 4 -6 -2 -5 -13z"/>
<path d="M3145 2700 c5 -14 16 -41 26 -60 11 -19 19 -43 19 -52 0 -10 7 -18
15 -18 12 0 10 11 -10 55 -13 30 -31 65 -40 78 l-17 22 7 -25z"/>
<path d="M2997 2680 c8 -30 21 -34 15 -5 -2 14 -8 25 -12 25 -5 0 -6 -9 -3
-20z"/>
<path d="M3121 2685 c0 -5 6 -19 14 -29 8 -11 15 -15 15 -10 0 6 -7 19 -15 30
-8 10 -14 15 -14 9z"/>
<path d="M717 2633 c-4 -3 -7 -11 -7 -17 0 -7 3 -7 8 1 4 6 7 -16 7 -49 0 -40
5 -63 13 -66 7 -2 9 -8 6 -13 -3 -6 -12 -2 -20 8 -13 16 -13 15 -4 -11 6 -16
8 -31 6 -34 -9 -8 -26 47 -20 63 4 8 2 15 -3 15 -5 0 -9 8 -10 19 -1 10 -11
33 -22 52 l-20 33 6 -39 c3 -21 12 -50 20 -65 7 -14 13 -32 13 -41 0 -24 61
-190 78 -214 13 -19 14 -19 7 5 -6 21 -3 20 14 -8 24 -37 26 -46 9 -36 -7 5
-8 3 -4 -5 5 -7 10 -10 14 -7 3 3 11 -2 19 -12 11 -15 12 -14 3 11 -5 15 -19
44 -29 65 -26 48 -35 74 -32 91 1 7 0 20 -4 29 -5 14 -7 14 -15 2 -7 -11 -10
-4 -10 23 0 21 4 36 9 33 14 -9 18 26 9 63 -7 26 -12 31 -19 20 -6 -10 -9 -5
-9 18 0 17 4 34 10 38 5 3 7 12 3 20 -6 16 -16 19 -26 8z"/>
<path d="M3161 2610 c14 -31 19 -36 19 -24 0 6 -7 19 -16 30 -14 18 -14 18 -3
-6z"/>
<path d="M3626 2548 c-3 -46 -9 -96 -11 -113 -5 -28 -5 -28 5 -6 11 25 27 201
18 201 -3 0 -8 -37 -12 -82z"/>
<path d="M4200 2610 c-6 -11 -8 -20 -6 -20 3 0 10 9 16 20 6 11 8 20 6 20 -3
0 -10 -9 -16 -20z"/>
<path d="M1146 2603 c-6 -14 -5 -15 5 -6 7 7 10 15 7 18 -3 3 -9 -2 -12 -12z"/>
<path d="M2060 2606 c0 -2 7 -9 15 -16 9 -7 15 -8 15 -2 0 5 -7 12 -15 16 -8
3 -15 4 -15 2z"/>
<path d="M2676 2547 c3 -10 9 -15 12 -12 3 3 0 11 -7 18 -10 9 -11 8 -5 -6z"/>
<path d="M1166 2538 c3 -5 12 -7 20 -4 8 3 14 -1 14 -9 0 -8 6 -15 13 -16 6 0
3 -4 -7 -8 -11 -4 -15 -10 -10 -14 6 -3 16 -2 22 2 22 13 -5 59 -34 59 -13 0
-21 -5 -18 -10z"/>
<path d="M2155 2534 c-46 -24 -55 -38 -13 -20 23 9 58 14 90 11 48 -3 51 -2
33 11 -25 18 -73 18 -110 -2z"/>
<path d="M3150 2534 c0 -5 7 -19 15 -30 8 -10 15 -14 15 -8 0 5 -7 19 -15 30
-8 10 -15 14 -15 8z"/>
<path d="M3191 2520 c0 -8 6 -28 14 -45 17 -39 18 -21 0 25 -7 19 -14 28 -14
20z"/>
<path d="M4105 2510 c-3 -5 -1 -10 4 -10 6 0 11 5 11 10 0 6 -2 10 -4 10 -3 0
-8 -4 -11 -10z"/>
<path d="M4146 2483 c-6 -14 -5 -15 5 -6 7 7 10 15 7 18 -3 3 -9 -2 -12 -12z"/>
<path d="M3146 2470 c3 -14 15 -43 25 -65 11 -22 17 -31 14 -21 -5 16 -3 17
10 6 8 -6 17 -28 21 -49 4 -20 10 -43 15 -51 5 -9 6 -2 3 20 -8 51 -34 140
-40 140 -3 0 -2 -9 1 -20 3 -11 2 -20 -3 -20 -6 0 -12 10 -15 23 -4 12 -13 31
-22 42 -16 19 -16 19 -9 -5z"/>
<path d="M1246 2457 c3 -10 9 -15 12 -12 3 3 0 11 -7 18 -10 9 -11 8 -5 -6z"/>
<path d="M1098 2383 c5 -21 7 -23 10 -9 2 10 0 22 -6 28 -6 6 -7 0 -4 -19z"/>
<path d="M2052 2383 c-28 -14 -50 -28 -48 -30 2 -3 30 9 62 26 33 16 55 30 49
30 -5 0 -34 -12 -63 -26z"/>
<path d="M2125 2393 l-20 -16 20 8 c11 5 40 8 65 7 34 -1 40 1 25 8 -31 14
-68 11 -90 -7z"/>
<path d="M1270 2381 c0 -5 5 -13 10 -16 6 -3 10 -2 10 4 0 5 -4 13 -10 16 -5
3 -10 2 -10 -4z"/>
<path d="M111 2276 c-13 -54 -15 -119 -2 -96 9 16 25 140 18 140 -3 0 -10 -20
-16 -44z"/>
<path d="M1000 2308 c0 -9 5 -20 10 -23 13 -8 13 5 0 25 -8 13 -10 13 -10 -2z"/>
<path d="M1126 2307 c3 -10 9 -15 12 -12 3 3 0 11 -7 18 -10 9 -11 8 -5 -6z"/>
<path d="M3591 2294 c0 -11 3 -14 6 -6 3 7 2 16 -1 19 -3 4 -6 -2 -5 -13z"/>
<path d="M3020 2272 c0 -17 4 -34 10 -37 6 -4 7 6 3 27 -8 44 -13 48 -13 10z"/>
<path d="M4211 2274 c0 -11 3 -14 6 -6 3 7 2 16 -1 19 -3 4 -6 -2 -5 -13z"/>
<path d="M2747 2233 c-3 -4 1 -17 9 -28 10 -13 14 -15 14 -4 0 20 -16 43 -23
32z"/>
<path d="M4064 2216 c-3 -9 -10 -13 -15 -10 -5 3 -6 -2 -3 -11 6 -14 9 -13 21
5 8 12 12 24 9 27 -3 3 -8 -2 -12 -11z"/>
<path d="M997 2175 c3 -16 12 -39 19 -50 19 -27 16 -7 -6 40 -17 34 -18 36
-13 10z"/>
<path d="M810 2180 c0 -5 5 -12 10 -15 6 -4 10 -12 8 -18 -3 -16 40 -97 51
-97 5 0 15 -16 21 -35 6 -19 16 -35 21 -35 5 0 9 -6 9 -14 0 -8 6 -16 13 -19
7 -2 -3 28 -23 68 -19 40 -38 71 -41 69 -4 -2 -14 7 -23 21 -17 26 -9 33 14
13 11 -10 11 -9 0 6 -25 33 -60 66 -60 56z"/>
<path d="M252 2150 c0 -8 6 -31 13 -50 7 -19 13 -28 13 -20 0 8 -6 31 -13 50
-7 19 -13 28 -13 20z"/>
<path d="M4130 2139 c0 -5 5 -7 10 -4 6 3 10 8 10 11 0 2 -4 4 -10 4 -5 0 -10
-5 -10 -11z"/>
<path d="M1089 2045 c9 -30 18 -50 19 -45 2 6 8 8 13 4 5 -3 9 -1 9 4 0 6 -7
12 -15 16 -9 3 -15 19 -15 41 0 23 -5 35 -14 35 -11 0 -11 -10 3 -55z"/>
<path d="M1055 2050 c-3 -5 -1 -10 4 -10 6 0 11 5 11 10 0 6 -2 10 -4 10 -3 0
-8 -4 -11 -10z"/>
<path d="M790 1990 c6 -11 13 -20 16 -20 2 0 0 9 -6 20 -6 11 -13 20 -16 20
-2 0 0 -9 6 -20z"/>
<path d="M290 1986 c0 -8 4 -17 9 -20 5 -4 7 3 4 14 -6 23 -13 26 -13 6z"/>
<path d="M1220 1991 c0 -5 5 -13 10 -16 6 -3 10 -2 10 4 0 5 -4 13 -10 16 -5
3 -10 2 -10 -4z"/>
<path d="M1127 1953 c3 -21 10 -45 15 -53 6 -10 8 -4 4 19 -3 18 -6 42 -6 52
0 11 -4 19 -9 19 -6 0 -7 -17 -4 -37z"/>
<path d="M2740 1939 c0 -15 7 -43 15 -62 24 -57 19 -83 -17 -108 -18 -13 -45
-34 -60 -48 -26 -24 -27 -27 -11 -50 8 -13 19 -36 23 -50 8 -26 8 -26 9 5 1
45 18 88 41 102 16 10 20 10 20 0 1 -9 4 -8 13 2 7 9 29 26 50 39 33 20 38 27
32 48 -3 14 -9 38 -12 54 -6 31 -27 39 -37 13 -9 -23 -29 -5 -23 23 2 13 2 21
-1 19 -2 -3 -13 5 -23 17 l-18 22 -1 -26z"/>
<path d="M312 1920 c0 -14 2 -19 5 -12 2 6 2 18 0 25 -3 6 -5 1 -5 -13z"/>
<path d="M3010 1911 c0 -7 -4 -10 -9 -7 -5 3 -11 -12 -15 -33 -3 -22 -8 -48
-11 -58 -3 -10 0 -7 6 7 31 66 40 92 35 97 -3 4 -6 1 -6 -6z"/>
<path d="M3705 1805 c-5 -11 -13 -23 -18 -26 -12 -9 0 -29 17 -29 8 0 19 7 26
15 15 18 0 20 -20 3 -12 -11 -12 -10 -1 4 7 9 11 25 8 35 -4 17 -5 16 -12 -2z"/>
<path d="M3445 1709 c-50 -49 -176 -118 -280 -153 -27 -9 -102 -34 -165 -55
-63 -22 -146 -47 -185 -56 -38 -9 -97 -23 -130 -31 -33 -8 -107 -22 -165 -30
-58 -9 -139 -22 -180 -29 l-75 -14 65 5 c143 10 320 43 535 99 44 11 174 54
345 113 30 11 90 38 134 61 l79 42 -19 -33 c-26 -43 -124 -109 -199 -132 -33
-11 -69 -25 -80 -32 -24 -17 -15 -18 19 -3 13 6 36 9 51 5 l27 -7 -24 -18
c-12 -10 -48 -31 -78 -45 -30 -15 -64 -32 -74 -38 -55 -30 -305 -99 -461 -128
l-40 -7 35 -2 c19 0 64 6 100 15 36 8 85 19 109 24 118 26 344 115 406 159 24
17 48 31 54 31 25 0 149 137 180 198 17 34 35 62 40 62 4 0 13 11 19 25 6 14
11 25 9 24 -1 0 -24 -22 -52 -50z"/>
<path d="M2446 1715 c-14 -13 -26 -27 -26 -30 0 -3 17 -4 38 -4 20 1 29 3 19
6 -9 2 -15 9 -12 14 10 15 55 10 61 -6 4 -9 19 -15 40 -15 46 0 45 26 -1 46
-51 21 -88 18 -119 -11z"/>
<path d="M3669 1735 c-1 -3 -2 -8 -3 -12 -1 -5 -5 -13 -9 -19 -9 -15 15 -25
33 -14 8 5 15 16 16 25 2 12 -3 14 -18 9 -14 -4 -18 -2 -14 5 4 6 5 11 2 11
-3 0 -7 -2 -7 -5z m21 -29 c0 -3 -4 -8 -10 -11 -5 -3 -10 -1 -10 4 0 6 5 11
10 11 6 0 10 -2 10 -4z"/>
<path d="M1150 1693 c0 -5 9 -18 20 -28 11 -10 20 -16 20 -13 0 3 -9 15 -20
28 -11 13 -20 19 -20 13z"/>
<path d="M3685 1670 c-3 -5 -2 -10 4 -10 5 0 13 5 16 10 3 6 2 10 -4 10 -5 0
-13 -4 -16 -10z"/>
<path d="M4221 1670 c-10 -5 -14 -28 -13 -75 1 -72 12 -105 12 -39 0 21 5 57
10 79 10 45 10 47 -9 35z"/>
<path d="M3656 1642 c-2 -4 -1 -14 4 -22 7 -11 9 -9 7 8 -1 24 -3 26 -11 14z"/>
<path d="M1190 1636 c0 -2 7 -9 15 -16 13 -11 14 -10 9 4 -5 14 -24 23 -24 12z"/>
<path d="M4175 1629 c-4 -6 -5 -12 -2 -15 2 -3 7 2 10 11 7 17 1 20 -8 4z"/>
<path d="M3625 1590 c-10 -11 -13 -20 -7 -20 6 0 -1 -20 -15 -45 -13 -25 -20
-45 -15 -45 14 0 32 25 37 50 2 13 12 31 21 41 11 12 13 19 5 19 -7 0 -9 5 -6
10 10 17 -1 11 -20 -10z"/>
<path d="M1230 1591 c0 -5 5 -13 10 -16 6 -3 10 -2 10 4 0 5 -4 13 -10 16 -5
3 -10 2 -10 -4z"/>
<path d="M1285 1530 c10 -11 20 -20 23 -20 3 0 -3 9 -13 20 -10 11 -20 20 -23
20 -3 0 3 -9 13 -20z"/>
<path d="M4162 1505 c12 -40 33 -85 40 -85 4 0 8 17 7 38 0 28 -2 32 -8 17 -7
-18 -9 -17 -25 10 -9 17 -16 26 -14 20z"/>
<path d="M4580 1500 c0 -5 5 -10 10 -10 6 0 10 5 10 10 0 6 -4 10 -10 10 -5 0
-10 -4 -10 -10z"/>
<path d="M1330 1475 c13 -14 26 -25 28 -25 3 0 -5 11 -18 25 -13 14 -26 25
-28 25 -3 0 5 -11 18 -25z"/>
<path d="M4253 1460 c0 -25 2 -35 4 -22 2 12 2 32 0 45 -2 12 -4 2 -4 -23z"/>
<path d="M4030 1470 c0 -8 5 -22 10 -30 9 -13 10 -13 10 0 0 8 -5 22 -10 30
-9 13 -10 13 -10 0z"/>
<path d="M4106 1455 c-9 -26 -7 -32 5 -12 6 10 9 21 6 23 -2 3 -7 -2 -11 -11z"/>
<path d="M1370 1443 c0 -6 8 -17 18 -24 16 -13 16 -13 2 6 -8 11 -16 22 -17
24 -2 2 -3 0 -3 -6z"/>
<path d="M3050 1438 c-14 -6 -20 -12 -13 -15 6 -2 24 3 40 11 32 17 11 20 -27
4z"/>
<path d="M3585 1440 c-3 -5 -1 -10 4 -10 6 0 11 5 11 10 0 6 -2 10 -4 10 -3 0
-8 -4 -11 -10z"/>
<path d="M319 1403 c-14 -16 -47 -49 -74 -74 -28 -25 -71 -68 -96 -95 -25 -27
-69 -68 -97 -92 -29 -24 -52 -48 -52 -54 0 -7 8 -3 18 8 10 10 38 35 62 54 23
19 54 48 69 64 14 16 69 71 121 123 52 51 90 93 85 93 -6 0 -22 -12 -36 -27z"/>
<path d="M2950 1400 c-25 -10 -38 -19 -29 -19 8 -1 33 8 55 19 50 25 33 25
-26 0z"/>
<path d="M3976 1388 c-9 -43 -2 -45 11 -3 6 19 8 35 3 35 -4 0 -10 -14 -14
-32z"/>
<path d="M4270 1385 c0 -14 4 -25 9 -25 4 0 6 11 3 25 -2 14 -6 25 -8 25 -2 0
-4 -11 -4 -25z"/>
<path d="M2836 1364 c-26 -9 -46 -17 -43 -20 5 -5 107 25 107 32 0 6 -11 4
-64 -12z"/>
<path d="M1080 1366 c0 -2 7 -7 16 -10 8 -3 12 -2 9 4 -6 10 -25 14 -25 6z"/>
<path d="M3535 1360 c-3 -6 1 -7 9 -4 18 7 21 14 7 14 -6 0 -13 -4 -16 -10z"/>
<path d="M3992 1350 c0 -14 2 -19 5 -12 2 6 2 18 0 25 -3 6 -5 1 -5 -13z"/>
<path d="M4081 1354 c0 -11 3 -14 6 -6 3 7 2 16 -1 19 -3 4 -6 -2 -5 -13z"/>
<path d="M3115 1350 c-3 -6 1 -7 9 -4 18 7 21 14 7 14 -6 0 -13 -4 -16 -10z"/>
<path d="M4273 1315 c0 -22 2 -30 4 -17 2 12 2 30 0 40 -3 9 -5 -1 -4 -23z"/>
<path d="M2188 1333 c12 -2 32 -2 45 0 12 2 2 4 -23 4 -25 0 -35 -2 -22 -4z"/>
<path d="M2748 1333 c7 -3 16 -2 19 1 4 3 -2 6 -13 5 -11 0 -14 -3 -6 -6z"/>
<path d="M2665 1320 c-27 -7 -28 -8 -5 -8 14 0 34 3 45 8 25 11 2 11 -40 0z"/>
<path d="M3040 1316 c0 -5 -3 -7 -6 -3 -3 3 -25 -3 -49 -13 -24 -10 -45 -17
-48 -14 -2 2 -17 -3 -33 -12 l-29 -16 41 6 c38 5 140 41 156 56 4 3 -1 6 -12
6 -11 0 -20 -5 -20 -10z"/>
<path d="M3976 1293 c-6 -14 -5 -15 5 -6 7 7 10 15 7 18 -3 3 -9 -2 -12 -12z"/>
<path d="M1115 1290 c-4 -6 -15 -8 -25 -5 -10 3 -21 1 -25 -4 -4 -7 1 -9 12
-5 16 5 16 4 -1 -10 -11 -9 -23 -16 -28 -16 -4 0 -8 -4 -8 -9 0 -12 30 -7 38
6 4 6 23 20 42 32 21 13 28 21 18 21 -9 0 -20 -5 -23 -10z"/>
<path d="M3484 1288 c-4 -7 -3 -8 4 -4 7 4 12 2 12 -4 0 -6 5 -8 10 -5 11 7 4
25 -10 25 -5 0 -12 -5 -16 -12z"/>
<path d="M3853 1285 c-3 -9 -3 -18 -1 -21 3 -3 8 4 11 16 6 23 -1 27 -10 5z"/>
<path d="M3922 1271 c-7 -19 -10 -36 -7 -39 6 -7 26 49 22 62 -2 6 -9 -5 -15
-23z"/>
<path d="M1244 1283 c-6 -2 3 -19 21 -38 34 -38 45 -43 45 -22 0 18 -52 65
-66 60z"/>
<path d="M4268 1250 c-7 -24 -3 -38 8 -28 3 4 4 17 2 30 l-3 23 -7 -25z"/>
<path d="M2805 1253 c-40 -10 -40 -24 0 -17 50 8 82 24 45 23 -14 -1 -34 -3
-45 -6z"/>
<path d="M3817 1249 c-20 -12 -50 -77 -41 -90 7 -12 40 29 54 66 13 33 11 37
-13 24z m-4 -39 c-3 -11 -9 -20 -15 -20 -5 0 -4 9 2 20 6 11 12 20 14 20 2 0
2 -9 -1 -20z"/>
<path d="M3956 1232 c-4 -13 -5 -26 -2 -29 10 -11 18 4 14 29 l-4 23 -8 -23z"/>
<path d="M1010 1230 c-10 -6 -11 -10 -3 -10 7 0 10 -7 7 -17 -5 -15 -3 -15 10
1 9 11 16 14 16 7 0 -7 5 -9 10 -6 6 3 10 11 10 17 0 6 -3 8 -7 5 -3 -4 -11
-3 -17 3 -7 5 -17 5 -26 0z"/>
<path d="M2670 1223 c-19 -3 -39 -9 -45 -14 -10 -11 44 -4 95 12 28 8 11 9
-50 2z"/>
<path d="M3465 1220 c-3 -6 1 -7 9 -4 18 7 21 14 7 14 -6 0 -13 -4 -16 -10z"/>
<path d="M2365 1204 l-80 -13 85 6 c47 3 105 9 130 13 l45 7 -50 0 c-27 0 -86
-5 -130 -13z"/>
<path d="M3906 1207 c3 -10 9 -15 12 -12 3 3 0 11 -7 18 -10 9 -11 8 -5 -6z"/>
<path d="M1337 1189 c7 -7 15 -10 18 -7 3 3 -2 9 -12 12 -14 6 -15 5 -6 -5z"/>
<path d="M3129 1165 c-17 -25 -46 -44 -104 -70 -44 -20 -88 -41 -97 -46 -10
-5 -25 -9 -34 -9 -9 0 -62 -11 -118 -24 -148 -35 -231 -48 -318 -50 -43 0 -78
-3 -78 -6 0 -16 28 -30 59 -31 28 0 32 -2 16 -8 -11 -5 -27 -6 -35 -4 -13 4
-13 4 0 -6 17 -12 74 -15 66 -3 -2 4 -1 14 5 22 6 10 9 11 9 3 0 -7 10 -13 23
-12 20 0 21 1 2 8 -16 7 -14 9 14 14 46 10 53 9 45 -5 -10 -16 54 -2 75 16 9
7 52 21 96 30 44 10 85 18 90 20 17 5 57 14 117 26 31 6 59 17 62 26 3 7 12
14 20 14 10 0 13 -6 10 -15 -4 -10 0 -15 12 -15 28 0 47 16 51 40 3 20 2 20
-13 6 -8 -9 -21 -16 -27 -16 -7 0 -1 9 13 19 13 11 27 18 31 15 13 -8 33 29
34 62 1 19 1 34 0 34 -2 0 -13 -16 -26 -35z m21 -19 c0 -2 -8 -10 -17 -17 -16
-13 -17 -12 -4 4 13 16 21 21 21 13z"/>
<path d="M4548 1193 c7 -3 16 -2 19 1 4 3 -2 6 -13 5 -11 0 -14 -3 -6 -6z"/>
<path d="M1313 1183 c4 -6 1 -14 -5 -16 -10 -4 -10 -6 0 -6 6 -1 14 0 17 2 2
1 12 -8 20 -20 9 -13 20 -23 26 -23 19 0 8 18 -28 46 -20 15 -33 23 -30 17z"/>
<path d="M4257 1171 c-4 -17 -3 -21 5 -13 5 5 8 16 6 23 -3 8 -7 3 -11 -10z"/>
<path d="M3429 1163 c-13 -16 -12 -17 4 -4 9 7 17 15 17 17 0 8 -8 3 -21 -13z"/>
<path d="M1310 1126 c0 -2 7 -7 16 -10 8 -3 12 -2 9 4 -6 10 -25 14 -25 6z"/>
<path d="M4260 1107 c0 -9 -4 -17 -10 -17 -5 0 -10 -4 -10 -10 0 -5 4 -10 9
-10 12 0 25 39 17 47 -3 4 -6 -1 -6 -10z"/>
<path d="M1355 1100 c3 -5 8 -10 11 -10 2 0 4 5 4 10 0 6 -5 10 -11 10 -5 0
-7 -4 -4 -10z"/>
<path d="M3375 1100 c-3 -5 -2 -10 4 -10 5 0 13 5 16 10 3 6 2 10 -4 10 -5 0
-13 -4 -16 -10z"/>
<path d="M3140 1085 c0 -9 6 -12 15 -9 8 4 12 10 9 15 -8 14 -24 10 -24 -6z"/>
<path d="M1325 1070 c3 -5 16 -15 28 -21 22 -12 22 -12 3 10 -19 21 -43 30
-31 11z"/>
<path d="M4528 1073 c6 -2 18 -2 25 0 6 3 1 5 -13 5 -14 0 -19 -2 -12 -5z"/>
<path d="M3030 1035 c0 -11 -5 -15 -15 -11 -8 3 -15 1 -15 -4 0 -6 -3 -9 -7
-8 -15 4 -143 -25 -149 -33 -3 -5 4 -9 15 -9 11 0 23 5 26 10 3 6 15 10 26 10
11 0 18 -4 14 -10 -6 -10 47 -6 65 5 6 4 26 8 44 10 36 3 106 33 106 45 0 4
-11 5 -25 2 -14 -2 -25 -9 -25 -14 0 -5 -5 -6 -12 -2 -7 4 -8 3 -4 -4 4 -7 1
-12 -8 -12 -9 0 -16 6 -16 14 0 8 -4 18 -10 21 -5 3 -10 -1 -10 -10z"/>
<path d="M3795 1039 c-4 -6 -5 -12 -2 -15 2 -3 7 2 10 11 7 17 1 20 -8 4z"/>
<path d="M3807 1015 c-9 -20 -17 -43 -16 -53 0 -9 9 5 20 32 23 57 20 72 -4
21z"/>
<path d="M1570 1038 c0 -2 9 -11 20 -21 11 -9 20 -13 20 -7 0 5 -9 14 -20 20
-11 6 -20 9 -20 8z"/>
<path d="M740 1020 c-8 -5 -10 -10 -5 -10 6 0 17 5 25 10 8 5 11 10 5 10 -5 0
-17 -5 -25 -10z"/>
<path d="M1521 1017 c-1 -5 10 -33 24 -64 14 -30 23 -62 20 -72 -2 -9 -26 -31
-53 -49 -26 -18 -61 -45 -78 -60 -16 -15 -41 -34 -54 -43 -33 -22 -144 -120
-148 -130 -3 -7 35 -7 102 0 5 1 6 4 2 9 -8 7 -13 9 -48 11 -35 2 -1 19 52 25
36 4 47 2 62 -16 10 -12 18 -25 18 -30 0 -4 8 -8 17 -8 14 0 13 3 -5 23 -12
13 -22 29 -22 35 0 12 -15 17 -35 12 -27 -6 -63 -5 -59 1 2 4 74 62 159 129
85 67 155 124 155 127 0 3 -9 -2 -20 -12 -11 -10 -22 -16 -24 -14 -2 2 -18 33
-34 69 -17 36 -31 61 -31 57z"/>
<path d="M4575 980 c-3 -6 1 -7 9 -4 18 7 21 14 7 14 -6 0 -13 -4 -16 -10z"/>
<path d="M1330 956 c0 -7 14 -22 31 -35 17 -13 28 -25 25 -28 -3 -3 -12 0 -21
7 -9 7 -17 11 -19 9 -2 -2 15 -17 38 -33 35 -25 38 -25 21 -6 l-20 23 20 -6
c16 -6 14 -2 -7 17 -29 26 -38 43 -15 30 9 -6 9 -4 -1 8 -16 21 -52 30 -52 14z"/>
<path d="M750 950 c-13 -8 -13 -10 2 -10 9 0 20 5 23 10 8 13 -5 13 -25 0z"/>
<path d="M4292 943 c-17 -30 -15 -37 4 -19 8 9 14 22 11 29 -2 7 -8 4 -15 -10z"/>
<path d="M4253 888 c1 -27 5 -48 9 -48 4 0 8 6 8 14 0 8 2 20 5 28 3 7 -1 22
-9 33 -14 19 -15 17 -13 -27z"/>
<path d="M1420 910 c0 -5 5 -10 11 -10 5 0 7 5 4 10 -3 6 -8 10 -11 10 -2 0
-4 -4 -4 -10z"/>
<path d="M2550 908 l-25 -10 26 -8 c16 -5 49 -2 80 6 l54 14 -55 -5 c-38 -3
-49 -2 -35 4 l20 10 -20 0 c-11 0 -31 -5 -45 -11z"/>
<path d="M2500 889 c0 -5 5 -7 10 -4 6 3 10 8 10 11 0 2 -4 4 -10 4 -5 0 -10
-5 -10 -11z"/>
<path d="M710 880 c8 -5 20 -10 25 -10 6 0 3 5 -5 10 -8 5 -19 10 -25 10 -5 0
-3 -5 5 -10z"/>
<path d="M633 861 c-3 -10 -14 -23 -26 -29 -17 -8 -18 -11 -5 -11 9 -1 19 3
22 7 3 5 22 9 42 10 43 2 60 12 21 12 -17 0 -27 5 -27 15 0 22 -21 19 -27 -4z"/>
<path d="M4290 860 c-6 -11 -8 -20 -6 -20 3 0 10 9 16 20 6 11 8 20 6 20 -3 0
-10 -9 -16 -20z"/>
<path d="M1370 856 c0 -3 9 -10 20 -16 11 -6 20 -8 20 -6 0 3 -9 10 -20 16
-11 6 -20 8 -20 6z"/>
<path d="M4255 820 c4 -6 11 -8 16 -5 14 9 11 15 -7 15 -8 0 -12 -5 -9 -10z"/>
<path d="M343 792 c-18 -9 -32 -21 -32 -25 1 -5 -2 -11 -5 -14 -3 -4 -6 -1 -6
5 0 7 -5 12 -11 12 -5 0 -8 -4 -4 -9 3 -6 -12 -18 -32 -27 -21 -10 -51 -26
-68 -37 -28 -17 -28 -18 -5 -12 l25 6 -23 -20 c-12 -11 -28 -22 -35 -25 -9 -5
-9 -7 1 -12 9 -4 0 -16 -27 -36 -23 -16 -41 -34 -41 -38 0 -5 -18 -19 -40 -31
-53 -30 -44 -35 17 -11 26 11 86 29 133 40 51 13 73 21 54 21 -17 1 -53 -6
-80 -14 -27 -8 -54 -15 -61 -15 -17 0 -7 23 15 35 49 27 92 58 87 63 -3 3 -11
0 -17 -6 -14 -14 -28 -16 -28 -3 0 4 29 23 65 41 36 18 65 34 65 36 0 2 -19
-3 -42 -12 -22 -8 -43 -13 -44 -11 -9 8 86 47 115 47 31 0 42 14 19 23 -9 4
-7 6 3 6 9 1 24 10 34 21 22 24 11 25 -32 2z"/>
<path d="M780 785 c0 -2 9 -9 20 -15 16 -9 18 -8 14 5 -5 13 -34 22 -34 10z"/>
<path d="M1629 732 c-20 -20 -79 -79 -131 -130 l-96 -93 -17 56 c-10 30 -22
55 -26 55 -12 0 -11 -27 1 -35 16 -10 12 -47 -7 -62 -17 -13 -16 -13 6 -11 35
4 36 -16 2 -51 -37 -38 -71 -40 -116 -5 -33 25 -37 39 -25 89 5 23 -1 46 -11
40 -6 -4 -8 -14 -5 -22 4 -9 2 -21 -3 -27 -18 -22 -5 -57 33 -91 22 -19 45
-35 52 -35 31 0 83 34 123 80 38 44 48 50 70 45 25 -6 25 -6 6 9 -16 13 -17
15 -2 10 12 -5 16 -2 12 8 -4 10 22 42 72 91 44 43 80 71 82 64 15 -48 151
-302 205 -381 33 -50 168 -229 185 -248 9 -9 29 -33 45 -52 15 -20 33 -36 38
-36 6 0 -6 17 -26 37 -20 21 -36 41 -36 45 0 4 -19 30 -42 57 -24 27 -59 73
-78 101 -19 28 -49 71 -67 94 -18 24 -44 65 -59 92 -15 27 -30 51 -34 54 -4 3
-34 58 -65 123 -42 86 -55 124 -51 142 4 14 5 25 4 25 -2 0 -19 -17 -39 -38z"/>
<path d="M4284 719 c-4 -7 -3 -14 3 -16 6 -2 9 -14 7 -26 -3 -14 0 -12 7 6 12
31 -2 60 -17 36z"/>
<path d="M870 680 c-8 -5 -10 -10 -5 -10 6 0 17 5 25 10 8 5 11 10 5 10 -5 0
-17 -5 -25 -10z"/>
<path d="M958 656 c-20 -6 -40 -15 -45 -20 -4 -5 3 -5 17 -1 44 14 70 24 70
30 0 3 -1 5 -2 4 -2 -1 -20 -6 -40 -13z"/>
<path d="M875 650 c-8 -13 5 -13 25 0 13 8 13 10 -2 10 -9 0 -20 -4 -23 -10z"/>
<path d="M4560 640 c0 -5 5 -10 10 -10 6 0 10 5 10 10 0 6 -4 10 -10 10 -5 0
-10 -4 -10 -10z"/>
<path d="M944 620 c-12 -5 -25 -13 -29 -19 -11 -18 28 -12 55 9 27 21 13 26
-26 10z"/>
<path d="M4342 604 c-7 -8 -8 -14 -3 -14 10 0 25 19 20 25 -2 1 -10 -3 -17
-11z"/>
<path d="M2592 580 c0 -19 2 -27 5 -17 2 9 2 25 0 35 -3 9 -5 1 -5 -18z"/>
<path d="M3245 600 c-3 -5 -1 -10 4 -10 6 0 11 5 11 10 0 6 -2 10 -4 10 -3 0
-8 -4 -11 -10z"/>
<path d="M965 560 c-10 -11 -16 -20 -13 -20 3 0 15 9 28 20 13 11 19 20 13 20
-5 0 -18 -9 -28 -20z"/>
<path d="M1430 570 c0 -5 5 -10 10 -10 6 0 10 5 10 10 0 6 -4 10 -10 10 -5 0
-10 -4 -10 -10z"/>
<path d="M4305 570 c-3 -5 1 -10 9 -10 9 0 16 -5 16 -12 0 -9 3 -9 11 -1 6 6
8 16 5 22 -9 14 -33 14 -41 1z"/>
<path d="M2681 523 c0 -12 -4 -30 -7 -40 -5 -14 -4 -15 5 -7 7 6 11 24 8 40
-3 21 -4 23 -6 7z"/>
<path d="M4346 523 c-6 -14 -5 -15 5 -6 7 7 10 15 7 18 -3 3 -9 -2 -12 -12z"/>
<path d="M2979 503 c-13 -16 -12 -17 4 -4 16 13 21 21 13 21 -2 0 -10 -8 -17
-17z"/>
<path d="M31 484 c-18 -8 -31 -17 -29 -19 5 -5 98 24 98 31 0 8 -36 2 -69 -12z"/>
<path d="M1472 492 c-10 -3 -7 -11 9 -28 12 -13 27 -24 33 -24 5 0 1 7 -10 16
-16 13 -16 15 -1 10 9 -3 17 -1 17 4 0 6 -6 10 -14 10 -8 0 -16 4 -18 9 -1 4
-9 6 -16 3z"/>
<path d="M2718 493 c7 -3 16 -2 19 1 4 3 -2 6 -13 5 -11 0 -14 -3 -6 -6z"/>
<path d="M1530 450 c0 -5 5 -10 11 -10 5 0 7 5 4 10 -3 6 -8 10 -11 10 -2 0
-4 -4 -4 -10z"/>
<path d="M4326 431 c-4 -5 3 -7 14 -4 23 6 26 13 6 13 -8 0 -17 -4 -20 -9z"/>
<path d="M1485 420 c3 -5 16 -15 28 -21 22 -12 22 -12 3 10 -19 21 -43 30 -31
11z"/>
<path d="M1535 420 c3 -5 11 -10 16 -10 6 0 7 5 4 10 -3 6 -11 10 -16 10 -6 0
-7 -4 -4 -10z"/>
<path d="M1575 420 c3 -5 11 -10 16 -10 6 0 7 5 4 10 -3 6 -11 10 -16 10 -6 0
-7 -4 -4 -10z"/>
<path d="M6 401 c-4 -5 3 -7 14 -4 23 6 26 13 6 13 -8 0 -17 -4 -20 -9z"/>
<path d="M4348 403 c6 -2 18 -2 25 0 6 3 1 5 -13 5 -14 0 -19 -2 -12 -5z"/>
<path d="M1598 381 c38 -25 39 -25 39 -8 0 7 -7 13 -16 13 -9 1 -25 4 -36 9
-11 4 -5 -2 13 -14z"/>
<path d="M1540 385 c0 -2 10 -10 23 -16 20 -11 21 -11 8 4 -13 16 -31 23 -31
12z"/>
<path d="M4330 370 c0 -5 4 -10 9 -10 6 0 13 5 16 10 3 6 -1 10 -9 10 -9 0
-16 -4 -16 -10z"/>
<path d="M4398 343 c6 -2 18 -2 25 0 6 3 1 5 -13 5 -14 0 -19 -2 -12 -5z"/>
<path d="M1494 315 c11 -8 36 -15 55 -15 30 1 33 2 18 11 -10 6 -23 8 -30 6
-7 -2 -23 0 -37 4 -24 9 -24 8 -6 -6z"/>
<path d="M2545 319 c-10 -15 0 -21 27 -17 l23 3 -22 13 c-15 8 -24 9 -28 1z"/>
<path d="M4280 313 c0 -5 13 -8 29 -8 16 0 33 3 37 8 4 4 -9 7 -29 7 -20 0
-37 -3 -37 -7z"/>
<path d="M1490 278 c0 -4 42 -8 93 -7 50 0 88 2 82 4 -23 8 -175 11 -175 3z"/>
<path d="M4315 280 c-3 -5 3 -10 15 -10 12 0 18 5 15 10 -3 6 -10 10 -15 10
-5 0 -12 -4 -15 -10z"/>
<path d="M4371 266 c2 -2 21 -6 42 -10 27 -5 37 -4 32 3 -3 6 -22 11 -42 11
-20 0 -34 -2 -32 -4z"/>
<path d="M4438 233 c7 -3 16 -2 19 1 4 3 -2 6 -13 5 -11 0 -14 -3 -6 -6z"/>
<path d="M1514 223 c7 -7 77 -5 85 3 2 2 -17 4 -44 4 -27 0 -45 -3 -41 -7z"/>
<path d="M4365 194 c-27 -8 -60 -18 -72 -21 -12 -3 -28 -12 -35 -21 -11 -13
-10 -15 3 -10 10 4 35 12 58 19 23 7 41 15 41 19 0 3 29 6 65 7 36 0 68 3 72
7 3 3 -5 6 -18 6 -13 0 -33 2 -44 5 -11 2 -42 -3 -70 -11z"/>
<path d="M1544 189 c-3 -5 9 -9 25 -9 17 0 31 2 31 4 0 8 -51 13 -56 5z"/>
<path d="M2585 180 c3 -5 8 -10 11 -10 2 0 4 5 4 10 0 6 -5 10 -11 10 -5 0 -7
-4 -4 -10z"/>
<path d="M3657 155 c-3 -22 -11 -62 -17 -89 -16 -78 -4 -65 15 17 9 40 15 82
13 93 -2 12 -7 4 -11 -21z"/>
<path d="M4510 182 c0 -12 59 -22 66 -10 3 4 -1 8 -8 8 -7 0 -23 3 -35 6 -13
4 -23 2 -23 -4z"/>
<path d="M1553 147 c-7 -12 -2 -13 42 -7 l40 6 -38 5 c-21 3 -41 1 -44 -4z"/>
<path d="M4215 150 c-16 -7 -17 -9 -3 -9 9 -1 20 4 23 9 7 11 7 11 -20 0z"/>
<path d="M1557 119 c-24 -14 -12 -29 21 -28 24 2 25 2 4 6 -19 4 -21 7 -11 19
13 16 11 17 -14 3z"/>
<path d="M4180 110 c-41 -22 -32 -26 13 -6 18 8 39 17 47 19 10 4 9 6 -5 6
-11 0 -36 -8 -55 -19z"/>
<path d="M4358 123 c7 -3 16 -2 19 1 4 3 -2 6 -13 5 -11 0 -14 -3 -6 -6z"/>
<path d="M4295 110 c-13 -5 -14 -9 -5 -9 8 0 24 4 35 9 13 5 14 9 5 9 -8 0
-24 -4 -35 -9z"/>
<path d="M1016 52 c-4 -24 -6 -46 -2 -49 8 -8 18 42 14 68 -3 18 -6 13 -12
-19z"/>
<path d="M2930 70 c0 -5 5 -10 10 -10 6 0 10 5 10 10 0 6 -4 10 -10 10 -5 0
-10 -4 -10 -10z"/>
<path d="M3076 15 c-11 -8 -15 -15 -9 -15 6 0 16 7 23 15 16 19 11 19 -14 0z"/>
<path d="M2758 3 c7 -3 16 -2 19 1 4 3 -2 6 -13 5 -11 0 -14 -3 -6 -6z"/>
</g>
</svg>
